<?xml version="1.0" encoding="UTF-8"?>
<svg id="Camada_1" data-name="Camada 1" xmlns="http://www.w3.org/2000/svg" viewBox="0 0 559.21 186.94">
  <defs>
    <style>
      .cls-1 {
        fill: none;
        stroke: #ccc;
        stroke-miterlimit: 10;
        stroke-width: .5px;
      }

      .cls-2 {
        fill: #ccc;
      }
    </style>
  </defs>
  <g>
    <path d="M166.13,87.19c-25.91-33.44-67.91-33.44-93.82,0l-4.96,6.4,4.96,6.4c25.91,33.44,67.91,33.44,93.82,0l4.96-6.4-4.96-6.4ZM138.75,93.05c.18,5.14-1.65,10.05-5.15,13.81-3.51,3.77-8.26,5.94-13.41,6.13-.24,0-.47.01-.7.01-4.88,0-9.53-1.84-13.12-5.16-2.86-2.66-4.82-6.07-5.66-9.86-.11-.47.19-.92.64-1.03.23-.05.45,0,.64.11.19.12.33.31.38.54.78,3.46,2.56,6.56,5.16,8.98,3.43,3.2,7.91,4.87,12.59,4.7,4.69-.17,9.03-2.15,12.22-5.58s4.87-7.91,4.7-12.59c-.17-4.69-2.15-9.03-5.58-12.22-3.43-3.2-7.88-4.87-12.59-4.7-4.69.17-9.03,2.15-12.22,5.58-.78.83-1.47,1.74-2.06,2.69-.25.41-.79.52-1.18.27-.19-.12-.33-.31-.38-.54s-.01-.45.11-.64c.66-1.05,1.42-2.04,2.27-2.96,3.51-3.77,8.28-5.94,13.41-6.13,5.16-.18,10.05,1.65,13.81,5.15,3.77,3.51,5.94,8.28,6.13,13.41v.02ZM124.07,92.05c1.04,0,1.94-.58,2.42-1.43.44.95.69,2,.69,3.12,0,4.11-3.34,7.45-7.45,7.45s-7.45-3.34-7.45-7.45,3.34-7.45,7.45-7.45c1.06,0,2.07.23,2.98.62-.82.48-1.38,1.37-1.38,2.38,0,1.51,1.23,2.75,2.75,2.75h-.01ZM124.77,87.33c.17.04.31.08.43.13l.07.74c-.13-.06-.27-.11-.43-.14-.16-.04-.32-.06-.5-.06-.12,0-.2,0-.26.02-.06.01-.11.04-.13.07-.02.04-.04.07-.04.11h0s.01.1.05.13c.02.04.08.07.17.11s.19.07.33.12c.21.07.38.13.52.2s.25.17.32.27c.07.12.11.26.11.47v.04c0,.32-.11.56-.31.72-.13.1-.32.16-.54.19v.45h-.72v-.43h-.1c-.12-.01-.24-.04-.35-.07-.11-.02-.2-.06-.27-.08l-.07-.79c.13.06.29.11.45.16.18.05.36.07.55.07.17,0,.3-.01.36-.05.07-.04.11-.1.11-.17h0c0-.06-.01-.11-.05-.14-.04-.04-.08-.07-.17-.1-.07-.04-.18-.07-.31-.11-.21-.07-.39-.14-.54-.23s-.25-.18-.33-.3c-.07-.12-.11-.27-.11-.47v-.04c0-.29.1-.51.3-.66.13-.1.31-.16.52-.19v-.44h.72v.44c.07,0,.16,0,.2.02h0ZM121.53,81.93c-3.18-.37-6.3.51-8.79,2.48-2.5,1.98-4.09,4.81-4.46,7.97s.51,6.28,2.48,8.79c1.98,2.5,4.81,4.09,7.97,4.46,2.44.29,4.88-.17,7.05-1.34,2.11-1.13,3.82-2.86,4.92-4.97.21-.42.73-.57,1.16-.36.2.11.36.29.42.5.07.21.05.45-.06.66-1.26,2.42-3.22,4.39-5.63,5.69-1.98,1.06-4.2,1.62-6.44,1.62-.54,0-1.09-.04-1.62-.1-3.61-.43-6.84-2.24-9.11-5.1-2.27-2.86-3.27-6.43-2.84-10.04s2.24-6.86,5.1-9.11c2.86-2.25,6.43-3.27,10.05-2.84,5.08.61,9.36,3.96,11.17,8.75.08.21.07.44-.02.66-.1.2-.26.37-.48.44-.44.17-.94-.06-1.1-.5-1.59-4.2-5.33-7.13-9.77-7.66h-.01ZM139,113.03c-5.15,5.15-12,7.99-19.28,7.99s-14.13-2.84-19.28-7.99c-5.15-5.15-7.99-12-7.99-19.28s2.84-14.13,7.99-19.28c5.15-5.15,12-7.99,19.28-7.99,1.04,0,2.09.06,3.1.18.23.02.43.14.57.32s.2.41.18.63-.13.43-.31.57-.41.21-.63.18c-.97-.11-1.94-.17-2.91-.17-6.82,0-13.24,2.66-18.07,7.49-4.83,4.83-7.49,11.24-7.49,18.08s2.66,13.25,7.49,18.07c4.83,4.83,11.24,7.49,18.07,7.49s13.25-2.66,18.08-7.49c4.83-4.83,7.49-11.24,7.49-18.07,0-5.56-1.75-10.84-5.06-15.28-.14-.18-.19-.41-.16-.63.04-.23.16-.43.33-.56s.41-.19.63-.16.43.16.56.33c3.53,4.73,5.4,10.37,5.4,16.3,0,7.29-2.84,14.13-7.99,19.28v-.02Z"/>
    <path d="M249.76,124.03l-8.61-14.51h-.06l-6.02-10.21-11.23-18.91-25.73,43.64h-14.93l32.41-53.93c1.51-2.53,4.25-4.07,7.19-4.07h7.92l34.86,58.01h-15.78v-.02Z"/>
    <path d="M319.54,62.65h12.83v34.28c0,19-9.54,27.95-33.67,27.95s-33.67-8.96-33.67-27.95v-34.28h13.59v34.28c0,10.9,4.72,15.04,20.51,15.04s20.43-4.14,20.43-15.04v-34.28h-.01Z"/>
    <path d="M337.09,62.65h16.04l25.65,43.82,25.57-43.82h15.11l-34.86,58.01h-12.66l-34.86-58.01h.01Z"/>
    <path d="M436.9,107.48v-12.75h31.91c6.4,0,10.21-3.8,10.21-9.46s-3.79-9.46-10.21-9.46h-30.55v48.21h-13.07v-61.38h43.63c14.51,0,23.04,8.61,23.04,22.22s-8.53,22.62-23.04,22.62h-31.92Z"/>
  </g>
  <rect class="cls-1" x="67.35" y="62.11" width="424.51" height="62.77"/>
  <rect class="cls-1" y=".23" width="559.21" height="186.52"/>
  <path class="cls-2" d="M54.52,124.7h12.83v34.28c0,19-9.54,27.95-33.67,27.95S0,177.98,0,158.98v-34.28h13.59v34.28c0,10.9,4.72,15.04,20.51,15.04s20.43-4.14,20.43-15.04v-34.28h-.01Z"/>
  <path class="cls-2" d="M54.52,0h12.83v34.28c0,19-9.54,27.95-33.67,27.95S0,53.28,0,34.28V0h13.59v34.28c0,10.9,4.72,15.04,20.51,15.04s20.43-4.14,20.43-15.04V0h-.01Z"/>
  <path class="cls-2" d="M546.38,124.7h12.83v34.28c0,19-9.54,27.95-33.67,27.95s-33.67-8.96-33.67-27.95v-34.28h13.59v34.28c0,10.9,4.72,15.04,20.51,15.04s20.43-4.14,20.43-15.04v-34.28h-.01Z"/>
  <path class="cls-2" d="M546.25,0h12.83v34.28c0,19-9.54,27.95-33.67,27.95s-33.67-8.96-33.67-27.95V0h13.59v34.28c0,10.9,4.72,15.04,20.51,15.04s20.43-4.14,20.43-15.04V0h-.01Z"/>
  <polyline class="cls-1" points="67.35 186.76 67.35 124.88 0 124.88"/>
  <polyline class="cls-1" points="67.35 .23 67.35 62.11 0 62.11"/>
  <polyline class="cls-1" points="491.86 186.76 491.86 124.88 559.21 124.88"/>
  <polyline class="cls-1" points="491.86 .23 491.86 62.11 559.21 62.11"/>
</svg>