<?xml version="1.0" encoding="UTF-8"?>
<svg id="Camada_1" data-name="Camada 1" xmlns="http://www.w3.org/2000/svg" viewBox="0 0 400 152"><metadata><c2pa:manifest xmlns:c2pa="http://c2pa.org/manifest">AAAsZ2p1bWIAAAAeanVtZGMycGEAEQAQgAAAqgA4m3EDYzJwYQAAACxBanVtYgAAAEdqdW1kYzJtYQARABCAAACqADibcQN1cm46dXVpZDo1NTNiN2E4MC1jZDdiLTQzY2EtOTg1Zi0yZmYxMDMwMzEyZmYAAAABp2p1bWIAAAApanVtZGMyYXMAEQAQgAAAqgA4m3EDYzJwYS5hc3NlcnRpb25zAAAAAMpqdW1iAAAAJmp1bWRjYm9yABEAEIAAAKoAOJtxA2MycGEuYWN0aW9ucwAAAACcY2JvcqFnYWN0aW9uc4GjZmFjdGlvbmtjMnBhLmVkaXRlZG1zb2Z0d2FyZUFnZW50bUFkb2JlIEZpcmVmbHlxZGlnaXRhbFNvdXJjZVR5cGV4Rmh0dHA6Ly9jdi5pcHRjLm9yZy9uZXdzY29kZXMvZGlnaXRhbHNvdXJjZXR5cGUvdHJhaW5lZEFsZ29yaXRobWljTWVkaWEAAACsanVtYgAAAChqdW1kY2JvcgARABCAAACqADibcQNjMnBhLmhhc2guZGF0YQAAAAB8Y2JvcqVqZXhjbHVzaW9uc4GiZXN0YXJ0GMdmbGVuZ3RoGTs0ZG5hbWVuanVtYmYgbWFuaWZlc3RjYWxnZnNoYTI1NmRoYXNoWCDf3UlJlCyKl2sg7HQzYaM2JDKMI0nVdomJFwAs7lCmyGNwYWRJAAAAAAAAAAAAAAACC2p1bWIAAAAkanVtZGMyY2wAEQAQgAAAqgA4m3EDYzJwYS5jbGFpbQAAAAHfY2JvcqhoZGM6dGl0bGVvR2VuZXJhdGVkIEltYWdlaWRjOmZvcm1hdG1pbWFnZS9zdmcreG1samluc3RhbmNlSUR4LHhtcDppaWQ6MmU1ZDAwMzMtYmZiZS00OTcwLWE0NGUtZDNiZGQzMGJjY2U3b2NsYWltX2dlbmVyYXRvcng2QWRvYmVfSWxsdXN0cmF0b3IvMjguMCBhZG9iZV9jMnBhLzAuNy42IGMycGEtcnMvMC4yNS4ydGNsYWltX2dlbmVyYXRvcl9pbmZvgb9kbmFtZXFBZG9iZSBJbGx1c3RyYXRvcmd2ZXJzaW9uZDI4LjD/aXNpZ25hdHVyZXgZc2VsZiNqdW1iZj1jMnBhLnNpZ25hdHVyZWphc3NlcnRpb25zgqJjdXJseCdzZWxmI2p1bWJmPWMycGEuYXNzZXJ0aW9ucy9jMnBhLmFjdGlvbnNkaGFzaFgg66xm4WqDn3xgnOk59f7WI0GCp10rxJISEEb0ImTQK8GiY3VybHgpc2VsZiNqdW1iZj1jMnBhLmFzc2VydGlvbnMvYzJwYS5oYXNoLmRhdGFkaGFzaFggbjLGltj43tCMlBvsgxA6Ltd9Z575SmGikI5inWxFo1ljYWxnZnNoYTI1NgAAKEBqdW1iAAAAKGp1bWRjMmNzABEAEIAAAKoAOJtxA2MycGEuc2lnbmF0dXJlAAAAKBBjYm9y0oREoQE4JKNmc2lnVHN0oWl0c3RUb2tlbnOBoWN2YWxZDjYwgg4yMAMCAQAwgg4pBgkqhkiG9w0BBwKggg4aMIIOFgIBAzEPMA0GCWCGSAFlAwQCAQUAMIGBBgsqhkiG9w0BCRABBKByBHAwbgIBAQYJYIZIAYb9bAcBMDEwDQYJYIZIAWUDBAIBBQAEIGqhEOOTkGq3t9QU5OKSDKZAb/TtZvN9uWphv+91ZCkJAhA/mLb25v0QB7WOQcRyGh9HGA8yMDIzMTEwODExNDM0NVoCCFdgfzLeRE2ooIILvTCCBQcwggLvoAMCAQICEAUenpHXHpEKu+Q9XO3Q3dkwDQYJKoZIhvcNAQELBQAwYzELMAkGA1UEBhMCVVMxFzAVBgNVBAoTDkRpZ2lDZXJ0LCBJbmMuMTswOQYDVQQDEzJEaWdpQ2VydCBUcnVzdGVkIEc0IFJTQTQwOTYgU0hBMjU2IFRpbWVTdGFtcGluZyBDQTAeFw0yMzA5MDgwMDAwMDBaFw0zNDEyMDcyMzU5NTlaMFgxCzAJBgNVBAYTAlVTMRcwFQYDVQQKEw5EaWdpQ2VydCwgSW5jLjEwMC4GA1UEAxMnRGlnaUNlcnQgQWRvYmUgQUFUTCBUaW1lc3RhbXAgUmVzcG9uZGVyMFkwEwYHKoZIzj0CAQYIKoZIzj0DAQcDQgAETSyuUfkD/7Xn8wWXVqw2HxDxO5s6wRV+7SqUmsXSyaO3AvUh4dn8AHsnn27VOumGjUEM3zmV9NjfSs0Gx9P6bKOCAYswggGHMA4GA1UdDwEB/wQEAwIHgDAMBgNVHRMBAf8EAjAAMBYGA1UdJQEB/wQMMAoGCCsGAQUFBwMIMCAGA1UdIAQZMBcwCAYGZ4EMAQQCMAsGCWCGSAGG/WwHATAfBgNVHSMEGDAWgBS6FtltTYUvcyl2mi91jGogj57IbzAdBgNVHQ4EFgQUsDWqVsMhqYvO07i8ixYlV53vNOEwWgYDVR0fBFMwUTBPoE2gS4ZJaHR0cDovL2NybDMuZGlnaWNlcnQuY29tL0RpZ2lDZXJ0VHJ1c3RlZEc0UlNBNDA5NlNIQTI1NlRpbWVTdGFtcGluZ0NBLmNybDCBkAYIKwYBBQUHAQEEgYMwgYAwJAYIKwYBBQUHMAGGGGh0dHA6Ly9vY3NwLmRpZ2ljZXJ0LmNvbTBYBggrBgEFBQcwAoZMaHR0cDovL2NhY2VydHMuZGlnaWNlcnQuY29tL0RpZ2lDZXJ0VHJ1c3RlZEc0UlNBNDA5NlNIQTI1NlRpbWVTdGFtcGluZ0NBLmNydDANBgkqhkiG9w0BAQsFAAOCAgEAeCuMQseEEIRYlILJFfuWwvQL0smBtfWvJVjJI1HEeQxHYuoLs9BlEmAM1H6Qminw/m/YHOn+MyvPDhTiljqti/cjwekWUlri4HBRMhSAdamLxfF3UkQRf3g844OLsfJJ6RfrQDTnkGjMVvsYZVrFvQut5BNFeeSvqCA81Q9f0aH7ZJw7GVN1BAuBluR1i/GjcCnpzL2uJmKNHE5mqI7JZLExSGArF4rPCsVbpdt7RrA2E5RdnMjFziLGkrNZIi2k8nfRmIFCfj1TcANhOeyFs31mRMDWkd/82i/ZlS+912RnxRi/Cj28G8tMO+eYAGdEwEppdgCzdkK/D0KQM85ZN5QkwVEC2ZTHnaiFoDecPxsInpR+lDakV851KHClvoYq/SD4GBx0gbYsc8nRR+av5eamBmCr8ciB7SGNwIAOmMOCrbPgHQvjG0ADUzwytTHTaHFvvXTicUqoy6/nMlNCXeyDCpdTI/73MdA/3L9nkXH8BBas5cJbnp1Xs/hwUEmXzMeqKeWGQ5K1nWbbb70eWr54LSEnaWQXUu7NF0klv/nUteg8pGeikUOeDpemgPt4brDhikDH34/TQm5SgGxhKt2y4WLJbJBAYECeMjr2CBtItxb6EnK26KdrFrBWUi0mRLZ5XlnhezE+Dt/za5GR203SFMd4j3cI3c5Z5F5ucrswggauMIIElqADAgECAhAHNje3JFR82Ees/ShmKl5bMA0GCSqGSIb3DQEBCwUAMGIxCzAJBgNVBAYTAlVTMRUwEwYDVQQKEwxEaWdpQ2VydCBJbmMxGTAXBgNVBAsTEHd3dy5kaWdpY2VydC5jb20xITAfBgNVBAMTGERpZ2lDZXJ0IFRydXN0ZWQgUm9vdCBHNDAeFw0yMjAzMjMwMDAwMDBaFw0zNzAzMjIyMzU5NTlaMGMxCzAJBgNVBAYTAlVTMRcwFQYDVQQKEw5EaWdpQ2VydCwgSW5jLjE7MDkGA1UEAxMyRGlnaUNlcnQgVHJ1c3RlZCBHNCBSU0E0MDk2IFNIQTI1NiBUaW1lU3RhbXBpbmcgQ0EwggIiMA0GCSqGSIb3DQEBAQUAA4ICDwAwggIKAoICAQDGhjUGSbPBPXJJUVXHJQPE8pE3qZdRodbSg9GeTKJtoLDMg/la9hGhRBVCX6SI82j6ffOciQt/nR+eDzMfUBMLJnOWbfhXqAJ9/UO0hNoR8XOxs+4rgISKIhjf69o9xBd/qxkrPkLcZ47qUT3w1lbU5ygt69OxtXXnHwZljZQp09nsad/ZkIdGAHvbREGJ3HxqV3rwN3mfXazL6IRktFLydkf3YYMZ3V+0VAshaG43IbtArF+y3kp9zvU5EmfvDqVjbOSmxR3NNg1c1eYbqMFkdECnwHLFuk4fsbVYTXn+149zk6wsOeKlSNbwsDETqVcplicu9Yemj052FVUmcJgmf6AaRyBD40NjgHt1biclkJg6OBGz9vae5jtb7IHeIhTZgirHkr+g3uM+onP65x9abJTyUpURK1h0QCirc0PO30qhHGs4xSnzyqqWc0Jon7ZGs506o9UD4L/wojzKQtwYSH8UNM/STKvvmz3+DrhkKvp1KCRB7UK/BZxmSVJQ9FHzNklNiyDSLFc1eSuo80VgvCONWPfcYd6T/jnA+bIwpUzX6ZhKWD7TA4j+s4/TXkt2ElGTyYwMO1uKIqjBJgj5FBASA31fI7tk42PgpuE+9sJ0sj8eCXbsq11GdeJgo1gJASgADoRU7s7pXcheMBK9Rp6103a50g5rmQzSM7TNsQIDAQABo4IBXTCCAVkwEgYDVR0TAQH/BAgwBgEB/wIBADAdBgNVHQ4EFgQUuhbZbU2FL3MpdpovdYxqII+eyG8wHwYDVR0jBBgwFoAU7NfjgtJxXWRM3y5nP+e6mK4cD08wDgYDVR0PAQH/BAQDAgGGMBMGA1UdJQQMMAoGCCsGAQUFBwMIMHcGCCsGAQUFBwEBBGswaTAkBggrBgEFBQcwAYYYaHR0cDovL29jc3AuZGlnaWNlcnQuY29tMEEGCCsGAQUFBzAChjVodHRwOi8vY2FjZXJ0cy5kaWdpY2VydC5jb20vRGlnaUNlcnRUcnVzdGVkUm9vdEc0LmNydDBDBgNVHR8EPDA6MDigNqA0hjJodHRwOi8vY3JsMy5kaWdpY2VydC5jb20vRGlnaUNlcnRUcnVzdGVkUm9vdEc0LmNybDAgBgNVHSAEGTAXMAgGBmeBDAEEAjALBglghkgBhv1sBwEwDQYJKoZIhvcNAQELBQADggIBAH1ZjsCTtm+YqUQiAX5m1tghQuGwGC4QTRPPMFPOvxj7x1Bd4ksp+3CKDaopafxpwc8dB+k+YMjYC+VcW9dth/qEICU0MWfNthKWb8RQTGIdDAiCqBa9qVbPFXONASIlzpVpP0d3+3J0FNf/q0+KLHqrhc1DX+1gtqpPkWaeLJ7giqzl/Yy8ZCaHbJK9nXzQcAp876i8dU+6WvepELJd6f8oVInw1YpxdmXazPByoyP6wCeCRK6ZJxurJB4mwbfeKuv2nrF5mYGjVoarCkXJ38SNoOeY+/umnXKvxMfBwWpx2cYTgAnEtp/Nh4cku0+jSbl3ZpHxcpzpSwJSpzd+k1OsOx0ISQ+UzTl63f8lY5knLD0/a6fxZsNBzU+2QJshIUDQtxMkzdwdeDrknq3lNHGS1yZr5Dhzq6YBT70/O3itTK37xJV77QpfMzmHQXh6OOmc4d0j/R0o08f56PGYX/sr2H7yRp11LB4nLCbbbxV7HhmLNriT1ObyF5lZynDwN7+YAN8gFk8n+2BnFqFmut1VwDophrCYoCvtlUG3OtUVmDG0YgkPCr2B2RP+v6TR81fZvAT6gt4y3wSJ8ADNXcL50CN/AAvkdgIm2fBldkKmKYcJRyvmfxqkhQ/8mJb2VVQrH4D6wPIOK+XW+6kvRBVK5xMOHds3OBqhK/bt1nz8MYIBuTCCAbUCAQEwdzBjMQswCQYDVQQGEwJVUzEXMBUGA1UEChMORGlnaUNlcnQsIEluYy4xOzA5BgNVBAMTMkRpZ2lDZXJ0IFRydXN0ZWQgRzQgUlNBNDA5NiBTSEEyNTYgVGltZVN0YW1waW5nIENBAhAFHp6R1x6RCrvkPVzt0N3ZMA0GCWCGSAFlAwQCAQUAoIHRMBoGCSqGSIb3DQEJAzENBgsqhkiG9w0BCRABBDAcBgkqhkiG9w0BCQUxDxcNMjMxMTA4MTE0MzQ1WjArBgsqhkiG9w0BCRACDDEcMBowGDAWBBTZGrkz/het6YIephP1pDpxTj5+fTAvBgkqhkiG9w0BCQQxIgQgnNE2xZ9SUfRINSVnbY1o3wimwEatoHeptUWD0JIsrgAwNwYLKoZIhvcNAQkQAi8xKDAmMCQwIgQggtrxlJV7NoQCRY/VJwBp/mLHFFb6nguGq/gn6FMgJ9kwCgYIKoZIzj0EAwIESDBGAiEA8dXvU8oGNPQP4wJli9ygO+UkOhm00ifKa78Z6nOSp7QCIQDWLJn7GEz/BKucAUYmCSwUHbYKC/MQE8rvMd7fYf1r12d4NWNoYWluglkGMzCCBi8wggQXoAMCAQICEBtbCzvasORd8vMNnlTR2tIwDQYJKoZIhvcNAQELBQAwdTELMAkGA1UEBhMCVVMxIzAhBgNVBAoTGkFkb2JlIFN5c3RlbXMgSW5jb3Jwb3JhdGVkMR0wGwYDVQQLExRBZG9iZSBUcnVzdCBTZXJ2aWNlczEiMCAGA1UEAxMZQWRvYmUgUHJvZHVjdCBTZXJ2aWNlcyBHMzAeFw0yMzAyMDEwMDAwMDBaFw0yNDAyMDEyMzU5NTlaMIGhMREwDwYDVQQDDAhjYWktcHJvZDEcMBoGA1UECwwTQ29udGVudCBDcmVkZW50aWFsczETMBEGA1UECgwKQWRvYmUgSW5jLjERMA8GA1UEBwwIU2FuIEpvc2UxEzARBgNVBAgMCkNhbGlmb3JuaWExCzAJBgNVBAYTAlVTMSQwIgYJKoZIhvcNAQkBFhVncnAtY2FpLW9wc0BhZG9iZS5jb20wggEiMA0GCSqGSIb3DQEBAQUAA4IBDwAwggEKAoIBAQDv0wCnfYY9lkHDsykrTG7FYlnYHBcyualuD5u9ULjzv+FsTWOLg8Nhrz9RTxI9EeBbu3Wm7f4vqPsQYfxkEp0wIa6DVmEOZhbAeRfbhybWQ/D4Wvvck4mEZR+QZmTpIn7HX61gbtMFHlJUxkYBctIoAt9TBAFbz9d5Ig2WG0bsH39b6/8USXnIIk4FB6dtBRT1xeEwSDtwOd1YBpXXNBJmRWHXNJZZ85of2tBTesg/kMvTrOJJxYDZ97U416wcvbVomlees+NXUY3/ZB4xH+NsZils7m1bL2v2hSnHiLoqZeUKklbHUmT4ZpjrZCdtuIsWm5j2PPXKr7HKUuCbZSXBAgMBAAWjggGMMIIBiDAMBgNVHRMBAf8EAjAAMA4GA1UdDwEB/wQEAwIHgDAeBgNVHSUEFzAVBgkqhkiG9y8BAQwGCCsGAQUFBwMEMIGOBgNVHSAEgYYwgYMwgYAGCSqGSIb3LwECAzBzMHEGCCsGAQUFBwICMGUMY1lvdSBhcmUgbm90IHBlcm1pdHRlZCB0byB1c2UgdGhpcyBMaWNlbnNlIENlcnRpZmljYXRlIGV4Y2VwdCBhcyBwZXJtaXR0ZWQgYnkgdGhlIGxpY2Vuc2UgYWdyZWVtZW50LjBdBgNVHR8EVjBUMFKgUKBOhkxodHRwOi8vcGtpLWNybC5zeW1hdXRoLmNvbS9jYV83YTVjM2EwYzczMTE3NDA2YWRkMTkzMTJiYzFiYzIzZi9MYXRlc3RDUkwuY3JsMDcGCCsGAQUFBwEBBCswKTAnBggrBgEFBQcwAYYbaHR0cDovL3BraS1vY3NwLnN5bWF1dGguY29tMB8GA1UdIwQYMBaAFFcpejJNzP7kNU7AHyRzznNTq99qMA0GCSqGSIb3DQEBCwUAA4ICAQBXjlGa3yAK/Gijn6n/JNU9FZm72MP6vc5czrWe9y0T+EawuRvhpD5Edi1TnXkrpe8sMkgSjTGdbY+yGhq8zlCWQeXN1/aWo3L9Xr1uNxY/oVpLn0uWWfnfJ7yR9gKl/yoMfhjydT4t1fXHi/MhfhrWSVRHqX2U31UFGz/e298P2kv+vqhzpIUo1bj+jibtoPLMMQcCOTtKiJOTh4o3VSZpwQDERCzo91NkF+LnZjwYl6fE5USIkg/oCoomXxSPpowybDrcRJ9ilbtJcER48/LGgwzv/c7OYdron4PnEXm1FkOaVj+QRf7OwiNTizonhIzLR5Vfp0QHOWv/bPzvCjPQd+Xr0Q4032WlSxQwostNTAPtoVAU4OCwVH3Ech38emJ00/6fkDCdr7MN8/4n2LSNrMUvaBEZdmLqDCBnO02dbFrmpg3pTc0FqRQ4GL/88pjRNSMy5tU9SoQnSCGYqIsjfL8AzgPEGiXXRgABYc1uXecf4/eayb3K2MPs7hnWTbUKpHHJIwxpdN3vTGdZNWpz9Oxfuo3eELQlkTvACHgqkaXi/FAanHe5PChn6fr1/4cNF8goD0buPApgS3zzwqjRhxrH8ISwPfJn8JqzurMaLDMnnc18tHzUiMtX73jf6oXh7voCxX/T4D3nFPlxU3om2cpcLQ1Wd4026x18rlSGR1kGpTCCBqEwggSJoAMCAQICEAyotlR7iebSBol1zYubieIwDQYJKoZIhvcNAQELBQAwbDELMAkGA1UEBhMCVVMxIzAhBgNVBAoTGkFkb2JlIFN5c3RlbXMgSW5jb3Jwb3JhdGVkMR0wGwYDVQQLExRBZG9iZSBUcnVzdCBTZXJ2aWNlczEZMBcGA1UEAxMQQWRvYmUgUm9vdCBDQSBHMjAeFw0xNjExMjkwMDAwMDBaFw00MTExMjgyMzU5NTlaMHUxCzAJBgNVBAYTAlVTMSMwIQYDVQQKExpBZG9iZSBTeXN0ZW1zIEluY29ycG9yYXRlZDEdMBsGA1UECxMUQWRvYmUgVHJ1c3QgU2VydmljZXMxIjAgBgNVBAMTGUFkb2JlIFByb2R1Y3QgU2VydmljZXMgRzMwggIiMA0GCSqGSIb3DQEBAQUAA4ICDwAwggIKAoICAQC3Hy69vQmzXEhs/gyDrmwB6lF4JaSAPomnsbKIZNr2iXaB+fkd85X8eJiNmI7P5O4cVT4Nc1p3zrESqBV4ZUyW8gcZ78QdwoHG8QNd2VNcHnMgSR+XT9Iafsnq9Nfww3Jt9KL3l5ANQ5n1+MJqr48EWNLll942bOL/JH4ywDSMoqhZqtJEIUUUGlQVBZ8CAvJc7LE6ddA5C52PE2Ppa7RfQgHXf4gfXVZwpxYRZcziPiOHqEvLb0J3cShUbejFxV6cwX8QyAPa1ePHg1RtM0HX+D34xHo3DkyGnmT+Ddq00TEDGG26AL5PdINKFIQl+zaq6KJFQe1fdGE5wrWzU4mBPmzaz3EbLn+7FWlwAhorYqIMldbfHE3ydc+aTU1JW7+bG19qmvhO9IluGtTtQDeqFBj2fg6faxsfVfVPD7stN6TwoIDlkOCE4RE+Iin8m3z3eqi/VsTmsmRqBxWDRaqOHz02EJoEDxXJG3ei+UbIIp01XZQvdufm90WxOTuqqan2ZqTPX9K5VdjEh/ovr7xFc5q1dZo+Sa5y4sTVM854/tLU3klOgUKzzSXYPYS3GhBcYJHjwr9xNRHnNX99D6F0g7OijScWfvtjxh13aTv/H0ETvymah4yfDpVdh9cK5YSCPqnuOlsujFAyhYwJXOWDvZZU2EkWVLDhoPx9zp7N4QIDAQABo4IBNDCCATAwEgYDVR0TAQH/BAgwBgEB/wIBADA1BgNVHR8ELjAsMCqgKKAmhiRodHRwOi8vY3JsLmFkb2JlLmNvbS9hZG9iZXJvb3RnMi5jcmwwDgYDVR0PAQH/BAQDAgEGMBQGA1UdJQQNMAsGCSqGSIb3LwEBBzBXBgNVHSAEUDBOMEwGCSqGSIb3LwECAzA/MD0GCCsGAQUFBwIBFjFodHRwczovL3d3dy5hZG9iZS5jb20vbWlzYy9wa2kvcHJvZF9zdmNlX2Nwcy5odG1sMCQGA1UdEQQdMBukGTAXMRUwEwYDVQQDEwxTWU1DLTQwOTYtMzMwHQYDVR0OBBYEFFcpejJNzP7kNU7AHyRzznNTq99qMB8GA1UdIwQYMBaAFKYc4W1UJEyoj0hyv26pjNXk7DHUMA0GCSqGSIb3DQEBCwUAA4ICAQBxzuUHjKbcLdzI4DtlXgCSgZXrlSAkr59pOF3JfPG42qVNAGU7JcEYXJ6+WbfcGwY7WYMl+jO7IvJPb7shXFYW9bnJgxX7lLU14KExchmcLNY1ee6IhBJ2Y8PzZMRUKSd5CkURPg0PBLGjz/KR/DofHx+G4rPTCOGORYxeYrd01lci5hVxvKccvIk7MD69ZTewfZPSM+0WnsU3f0Zmd7hgbRpUyWceG0eHFpdUKK/ZFWhHjDVC28odCnN885tHncKXviItK0ZUUo/AIthFKlhEXsnq9VL9fFbgvO83ZvpUQo5y8mY3cuGnEVGXdhjNb53CfC1u4dbpYmWaN99subUzEsUaUb3loLPfVfzDOpg2y9v37kBdy/wuXr20teY7U62xj/fAgs1QSnhUtlMTfCqbefyEycKVmKIrJkJLsvgTSYKVvH4FFIwfd5WjqOC97jX98rcVAzhAI0iSkazsWOMvL6m0L4nLJapx+85GsVX8Y6AHmEP4bmCElwil6KAP+UewJFiw5rmwV2pESHAhYuZJa03B8tl0nd2QJzvJGmbeBqXqpF9ORinFM3HErK8puRokOjFH2+1asLeI2tB31W/ELdNe27Ogduq6Z6qBwCp59YX27qydDhD0WRfN64kCs25K88iGAGNW2CAfTDS+b+WYJBiIL9jXYZ4LF+BiUvfdu2NwYWRZC70AAAAAAAAAAAAAAAAAAAAAAAAAAAAAAAAAAAAAAAAAAAAAAAAAAAAAAAAAAAAAAAAAAAAAAAAAAAAAAAAAAAAAAAAAAAAAAAAAAAAAAAAAAAAAAAAAAAAAAAAAAAAAAAAAAAAAAAAAAAAAAAAAAAAAAAAAAAAAAAAAAAAAAAAAAAAAAAAAAAAAAAAAAAAAAAAAAAAAAAAAAAAAAAAAAAAAAAAAAAAAAAAAAAAAAAAAAAAAAAAAAAAAAAAAAAAAAAAAAAAAAAAAAAAAAAAAAAAAAAAAAAAAAAAAAAAAAAAAAAAAAAAAAAAAAAAAAAAAAAAAAAAAAAAAAAAAAAAAAAAAAAAAAAAAAAAAAAAAAAAAAAAAAAAAAAAAAAAAAAAAAAAAAAAAAAAAAAAAAAAAAAAAAAAAAAAAAAAAAAAAAAAAAAAAAAAAAAAAAAAAAAAAAAAAAAAAAAAAAAAAAAAAAAAAAAAAAAAAAAAAAAAAAAAAAAAAAAAAAAAAAAAAAAAAAAAAAAAAAAAAAAAAAAAAAAAAAAAAAAAAAAAAAAAAAAAAAAAAAAAAAAAAAAAAAAAAAAAAAAAAAAAAAAAAAAAAAAAAAAAAAAAAAAAAAAAAAAAAAAAAAAAAAAAAAAAAAAAAAAAAAAAAAAAAAAAAAAAAAAAAAAAAAAAAAAAAAAAAAAAAAAAAAAAAAAAAAAAAAAAAAAAAAAAAAAAAAAAAAAAAAAAAAAAAAAAAAAAAAAAAAAAAAAAAAAAAAAAAAAAAAAAAAAAAAAAAAAAAAAAAAAAAAAAAAAAAAAAAAAAAAAAAAAAAAAAAAAAAAAAAAAAAAAAAAAAAAAAAAAAAAAAAAAAAAAAAAAAAAAAAAAAAAAAAAAAAAAAAAAAAAAAAAAAAAAAAAAAAAAAAAAAAAAAAAAAAAAAAAAAAAAAAAAAAAAAAAAAAAAAAAAAAAAAAAAAAAAAAAAAAAAAAAAAAAAAAAAAAAAAAAAAAAAAAAAAAAAAAAAAAAAAAAAAAAAAAAAAAAAAAAAAAAAAAAAAAAAAAAAAAAAAAAAAAAAAAAAAAAAAAAAAAAAAAAAAAAAAAAAAAAAAAAAAAAAAAAAAAAAAAAAAAAAAAAAAAAAAAAAAAAAAAAAAAAAAAAAAAAAAAAAAAAAAAAAAAAAAAAAAAAAAAAAAAAAAAAAAAAAAAAAAAAAAAAAAAAAAAAAAAAAAAAAAAAAAAAAAAAAAAAAAAAAAAAAAAAAAAAAAAAAAAAAAAAAAAAAAAAAAAAAAAAAAAAAAAAAAAAAAAAAAAAAAAAAAAAAAAAAAAAAAAAAAAAAAAAAAAAAAAAAAAAAAAAAAAAAAAAAAAAAAAAAAAAAAAAAAAAAAAAAAAAAAAAAAAAAAAAAAAAAAAAAAAAAAAAAAAAAAAAAAAAAAAAAAAAAAAAAAAAAAAAAAAAAAAAAAAAAAAAAAAAAAAAAAAAAAAAAAAAAAAAAAAAAAAAAAAAAAAAAAAAAAAAAAAAAAAAAAAAAAAAAAAAAAAAAAAAAAAAAAAAAAAAAAAAAAAAAAAAAAAAAAAAAAAAAAAAAAAAAAAAAAAAAAAAAAAAAAAAAAAAAAAAAAAAAAAAAAAAAAAAAAAAAAAAAAAAAAAAAAAAAAAAAAAAAAAAAAAAAAAAAAAAAAAAAAAAAAAAAAAAAAAAAAAAAAAAAAAAAAAAAAAAAAAAAAAAAAAAAAAAAAAAAAAAAAAAAAAAAAAAAAAAAAAAAAAAAAAAAAAAAAAAAAAAAAAAAAAAAAAAAAAAAAAAAAAAAAAAAAAAAAAAAAAAAAAAAAAAAAAAAAAAAAAAAAAAAAAAAAAAAAAAAAAAAAAAAAAAAAAAAAAAAAAAAAAAAAAAAAAAAAAAAAAAAAAAAAAAAAAAAAAAAAAAAAAAAAAAAAAAAAAAAAAAAAAAAAAAAAAAAAAAAAAAAAAAAAAAAAAAAAAAAAAAAAAAAAAAAAAAAAAAAAAAAAAAAAAAAAAAAAAAAAAAAAAAAAAAAAAAAAAAAAAAAAAAAAAAAAAAAAAAAAAAAAAAAAAAAAAAAAAAAAAAAAAAAAAAAAAAAAAAAAAAAAAAAAAAAAAAAAAAAAAAAAAAAAAAAAAAAAAAAAAAAAAAAAAAAAAAAAAAAAAAAAAAAAAAAAAAAAAAAAAAAAAAAAAAAAAAAAAAAAAAAAAAAAAAAAAAAAAAAAAAAAAAAAAAAAAAAAAAAAAAAAAAAAAAAAAAAAAAAAAAAAAAAAAAAAAAAAAAAAAAAAAAAAAAAAAAAAAAAAAAAAAAAAAAAAAAAAAAAAAAAAAAAAAAAAAAAAAAAAAAAAAAAAAAAAAAAAAAAAAAAAAAAAAAAAAAAAAAAAAAAAAAAAAAAAAAAAAAAAAAAAAAAAAAAAAAAAAAAAAAAAAAAAAAAAAAAAAAAAAAAAAAAAAAAAAAAAAAAAAAAAAAAAAAAAAAAAAAAAAAAAAAAAAAAAAAAAAAAAAAAAAAAAAAAAAAAAAAAAAAAAAAAAAAAAAAAAAAAAAAAAAAAAAAAAAAAAAAAAAAAAAAAAAAAAAAAAAAAAAAAAAAAAAAAAAAAAAAAAAAAAAAAAAAAAAAAAAAAAAAAAAAAAAAAAAAAAAAAAAAAAAAAAAAAAAAAAAAAAAAAAAAAAAAAAAAAAAAAAAAAAAAAAAAAAAAAAAAAAAAAAAAAAAAAAAAAAAAAAAAAAAAAAAAAAAAAAAAAAAAAAAAAAAAAAAAAAAAAAAAAAAAAAAAAAAAAAAAAAAAAAAAAAAAAAAAAAAAAAAAAAAAAAAAAAAAAAAAAAAAAAAAAAAAAAAAAAAAAAAAAAAAAAAAAAAAAAAAAAAAAAAAAAAAAAAAAAAAAAAAAAAAAAAAAAAAAAAAAAAAAAAAAAAAAAAAAAAAAAAAAAAAAAAAAAAAAAAAAAAAAAAAAAAAAAAAAAAAAAAAAAAAAAAAAAAAAAAAAAAAAAAAAAAAAAAAAAAAAAAAAAAAAAAAAAAAAAAAAAAAAAAAAAAAAAAAAAAAAAAAAAAAAAAAAAAAAAAAAAAAAAAAAAAAAAAAAAAAAAAAAAAAAAAAAAAAAAAAAAAAAAAAAAAAAAAAAAAAAAAAAAAAAAAAAAAAAAAAAAAAAAAAAAAAAAAAAAAAAAAAAAAAAAAAAAAAAAAAAAAAAAAAAAAAAAAAAAAAAAAAAAAAAAAAAAAAAAAAAAAAAAAAAAAAAAAAAAAAAAAAAAAAAAAAAAAAAAAAAAAAAAAAAAAAAAAAAAAAAAAAAAAAAAAAAAAAAAAAAAAAAAAAAAAAAAAAAAAAAAAAAAAAAAAAAAAAAAAAAAAAAAAAAAAAAAAAAAAAAAAAAAAAAAAAAAAAAAAAAAAAAAAAAAAAAAAAAAAAAAAAAAAAAAAAAAAAAAAAAAAAAAAAAAAAAAAAAAAAAAAAAAAAAAAAAAAAAAAAAAAAAAAAAAAAAAAAAAAAAAAAAAAAAAAAAAAAAAAAAAAAAAAAAAAAAAAAAAAAAAAAAAAAAAAAAAAAAAAAAAAAAAAAAAAAAAAAAAAAAAAAAAAAAAAAAAAAAAAAAAAAAAAAAAAAAAAAAAAAAAAAAAAAAAAAAAAAAAAAAAAAAAAAAAAAAAAAAAAAAAAAAAAAAAAAAAAAAAAAAAAAAAAAAAAAAAAAAAAAAAAAAAAAAAAAAAAAAAAAAAAAAAAAAAAAAAAAAAAAAAAAAAAAAAAAAAAAAAAAAAAAAAAAAAAAAAAAAAAAAAAAAAAAAAAAAAAAAAAAAAAAAAAAAAAAAAAAAAAAAAAAAAAAAAAAAAAAAAAAAAAAAAAAAAAAAAAAAAAAAAAAAAAAAAAAAAAAAAAAAAAAAAAAAAAAAAAAAAAAAAAAAAAAAAAAAAAAAAAAAAAAAAAAAAAAAAAAAAAAAAAAAAAAAAAAAAAAAAAAAAAAAAAAAAAAAAAAAAAAAAAAAAAAAAAAAAAAAAAAAAAAAAAAAAAAAAAAAAAAAAAAAAAAAAAAAAAAAAAAAAAAAAAAAAAAAAAAPZZAQCoJrIvOFEo1oiPwDwg0HiNvK6ITm9HNpryJOPWIGw6AUbxZoQuPnF/UwABvd469CBvzsEs5NZLXjYYRFIukuAIM3TGEaZX9DDI44iIy+tHvZHbfpN1/61B6HcLtvSfwNz09O/jeIK8SKvzxtrUUADr+1Fpb6/RcB2JDjcq9uDyBf21CaNWoKgSVvqG57+XVroq4jcyNjH2Xqrb6WJHhuhCN4oJ9Q4VhF0Dq9KiydiSeaw0kg8kwsNNPXiTWiEvf4n1CK7Z73B0jxYaidJCnPcYFxW6mqA3O6RoTY+MtM0YedNgO4E+aVCfnsxCj3zvoqZDof5HbeUnjwgBBB49j4lw</c2pa:manifest></metadata>
  <defs>
    <style>
      .cls-1 {
        fill: #fff;
        stroke-width: 0px;
      }
    </style>
  </defs>
  <path class="cls-1" d="m104.84,70.27c-21.73-28.04-56.95-28.04-78.68,0l-4.16,5.37,4.16,5.37c21.73,28.04,56.95,28.04,78.68,0l4.16-5.37-4.16-5.37Zm-22.96,4.92c.15,4.31-1.38,8.43-4.32,11.58-2.94,3.16-6.93,4.98-11.25,5.14-.2,0-.39.01-.59.01-4.09,0-7.99-1.54-11-4.33-2.4-2.23-4.04-5.09-4.75-8.27-.09-.39.16-.77.54-.86.19-.04.38,0,.54.09.16.1.28.26.32.45.65,2.9,2.15,5.5,4.33,7.53,2.88,2.68,6.63,4.08,10.56,3.94,3.93-.14,7.57-1.8,10.25-4.68,2.68-2.88,4.08-6.63,3.94-10.56-.14-3.93-1.8-7.57-4.68-10.25-2.88-2.68-6.61-4.08-10.56-3.94-3.93.14-7.57,1.8-10.25,4.68-.65.7-1.23,1.46-1.73,2.26-.21.34-.66.44-.99.23-.16-.1-.28-.26-.32-.45s-.01-.38.09-.54c.55-.88,1.19-1.71,1.9-2.48,2.94-3.16,6.94-4.98,11.25-5.14,4.33-.15,8.43,1.38,11.58,4.32,3.16,2.94,4.98,6.94,5.14,11.25Zm-12.31-.84c.87,0,1.63-.49,2.03-1.2.37.8.58,1.68.58,2.62,0,3.45-2.8,6.25-6.25,6.25s-6.25-2.8-6.25-6.25,2.8-6.25,6.25-6.25c.89,0,1.74.19,2.5.52-.69.4-1.16,1.15-1.16,2,0,1.27,1.03,2.31,2.31,2.31Zm.58-3.96c.14.03.26.07.36.11l.06.62c-.11-.05-.23-.09-.36-.12-.13-.03-.27-.05-.42-.05-.1,0-.17,0-.22.02-.05.01-.09.03-.11.06-.02.03-.03.06-.03.09h0s.01.08.04.11c.02.03.07.06.14.09.07.03.16.06.28.1.18.06.32.11.44.17.12.06.21.14.27.23.06.1.09.22.09.39v.03c0,.27-.09.47-.26.6-.11.08-.27.13-.45.16v.38h-.6v-.36s-.06,0-.08,0c-.1-.01-.2-.03-.29-.06-.09-.02-.17-.05-.23-.07l-.06-.66c.11.05.24.09.38.13.15.04.3.06.46.06.14,0,.25-.01.3-.04.06-.03.09-.08.09-.14h0c0-.05-.01-.09-.04-.12-.03-.03-.07-.06-.14-.08-.06-.03-.15-.06-.26-.09-.18-.06-.33-.12-.45-.19s-.21-.15-.28-.25c-.06-.1-.09-.23-.09-.39v-.03c0-.24.08-.43.25-.55.11-.08.26-.13.44-.16v-.37h.6v.37c.06,0,.13,0,.17.02Zm-2.71-4.53c-2.67-.31-5.28.43-7.37,2.08-2.1,1.66-3.43,4.03-3.74,6.68-.31,2.65.43,5.27,2.08,7.37,1.66,2.1,4.03,3.43,6.68,3.74,2.05.24,4.09-.14,5.91-1.12,1.77-.95,3.2-2.4,4.13-4.17.18-.35.61-.48.97-.3.17.09.3.24.35.42.06.18.04.38-.05.55-1.06,2.03-2.7,3.68-4.72,4.77-1.66.89-3.52,1.36-5.4,1.36-.45,0-.91-.03-1.36-.08-3.03-.36-5.74-1.88-7.64-4.28-1.9-2.4-2.74-5.39-2.38-8.42.36-3.03,1.88-5.75,4.28-7.64,2.4-1.89,5.39-2.74,8.43-2.38,4.26.51,7.85,3.32,9.37,7.34.07.18.06.37-.02.55-.08.17-.22.31-.4.37-.37.14-.79-.05-.92-.42-1.33-3.52-4.47-5.98-8.19-6.42Zm14.65,26.08c-4.32,4.32-10.06,6.7-16.17,6.7s-11.85-2.38-16.17-6.7c-4.32-4.32-6.7-10.06-6.7-16.17s2.38-11.85,6.7-16.17c4.32-4.32,10.06-6.7,16.17-6.7.87,0,1.75.05,2.6.15.19.02.36.12.48.27.12.15.17.34.15.53-.02.19-.11.36-.26.48-.15.12-.34.18-.53.15-.81-.09-1.63-.14-2.44-.14-5.72,0-11.1,2.23-15.15,6.28-4.05,4.05-6.28,9.43-6.28,15.16s2.23,11.11,6.28,15.15c4.05,4.05,9.43,6.28,15.15,6.28s11.11-2.23,15.16-6.28c4.05-4.05,6.28-9.43,6.28-15.15,0-4.66-1.47-9.09-4.24-12.81-.12-.15-.16-.34-.13-.53.03-.19.13-.36.28-.47.15-.11.34-.16.53-.13.19.03.36.13.47.28,2.96,3.97,4.53,8.7,4.53,13.67,0,6.11-2.38,11.85-6.7,16.17Z"/>
  <path class="cls-1" d="m174.97,101.17l-7.22-12.17h-.05l-5.05-8.56-9.42-15.86-21.58,36.6h-12.52l27.18-45.23c1.27-2.12,3.56-3.41,6.03-3.41h6.64l29.23,48.65h-13.23Z"/>
  <path class="cls-1" d="m233.49,49.69h10.76v28.75c0,15.93-8,23.44-28.24,23.44s-28.24-7.51-28.24-23.44v-28.75h11.4v28.75c0,9.14,3.96,12.61,17.2,12.61s17.13-3.47,17.13-12.61v-28.75Z"/>
  <path class="cls-1" d="m248.21,49.69h13.45l21.51,36.75,21.44-36.75h12.67l-29.23,48.65h-10.62l-29.23-48.65Z"/>
  <path class="cls-1" d="m331.91,87.29v-10.69h26.76c5.37,0,8.56-3.19,8.56-7.93s-3.18-7.93-8.56-7.93h-25.62v40.43h-10.96v-51.47h36.59c12.17,0,19.32,7.22,19.32,18.63s-7.15,18.97-19.32,18.97h-26.77Z"/>
</svg>