<?xml version="1.0" encoding="UTF-8"?>
<svg id="Camada_1" data-name="Camada 1" xmlns="http://www.w3.org/2000/svg" viewBox="0 0 400 400"><metadata><c2pa:manifest xmlns:c2pa="http://c2pa.org/manifest">AAA0RGp1bWIAAAAeanVtZGMycGEAEQAQgAAAqgA4m3EDYzJwYQAAADQeanVtYgAAAEdqdW1kYzJtYQARABCAAACqADibcQN1cm46dXVpZDowOThmZjM2ZS01NDU5LTRjMGEtOThmMS02NzA5N2E4ZjhiYzgAAAABtGp1bWIAAAApanVtZGMyYXMAEQAQgAAAqgA4m3EDYzJwYS5hc3NlcnRpb25zAAAAANdqdW1iAAAAJmp1bWRjYm9yABEAEIAAAKoAOJtxA2MycGEuYWN0aW9ucwAAAACpY2JvcqFnYWN0aW9uc4GjZmFjdGlvbmtjMnBhLmVkaXRlZG1zb2Z0d2FyZUFnZW50bUFkb2JlIEZpcmVmbHlxZGlnaXRhbFNvdXJjZVR5cGV4U2h0dHA6Ly9jdi5pcHRjLm9yZy9uZXdzY29kZXMvZGlnaXRhbHNvdXJjZXR5cGUvY29tcG9zaXRlV2l0aFRyYWluZWRBbGdvcml0aG1pY01lZGlhAAAArGp1bWIAAAAoanVtZGNib3IAEQAQgAAAqgA4m3EDYzJwYS5oYXNoLmRhdGEAAAAAfGNib3KlamV4Y2x1c2lvbnOBomVzdGFydBjHZmxlbmd0aBlFsGRuYW1lbmp1bWJmIG1hbmlmZXN0Y2FsZ2ZzaGEyNTZkaGFzaFggIgYPOyBJ0ZN7G1JMneiO4Jv3996WIidK7qWyTxXY0nJjcGFkSQAAAAAAAAAAAAAAAgtqdW1iAAAAJGp1bWRjMmNsABEAEIAAAKoAOJtxA2MycGEuY2xhaW0AAAAB32Nib3KoaGRjOnRpdGxlb0dlbmVyYXRlZCBJbWFnZWlkYzpmb3JtYXRtaW1hZ2Uvc3ZnK3htbGppbnN0YW5jZUlEeCx4bXA6aWlkOjQxYzA3YzZjLWMxMDAtNDM3ZC1iYzVmLTM3MjY3NDQyM2Y4NW9jbGFpbV9nZW5lcmF0b3J4NkFkb2JlX0lsbHVzdHJhdG9yLzI5LjIgYWRvYmVfYzJwYS8wLjcuNiBjMnBhLXJzLzAuMjUuMnRjbGFpbV9nZW5lcmF0b3JfaW5mb4G/ZG5hbWVxQWRvYmUgSWxsdXN0cmF0b3JndmVyc2lvbmQyOS4y/2lzaWduYXR1cmV4GXNlbGYjanVtYmY9YzJwYS5zaWduYXR1cmVqYXNzZXJ0aW9uc4KiY3VybHgnc2VsZiNqdW1iZj1jMnBhLmFzc2VydGlvbnMvYzJwYS5hY3Rpb25zZGhhc2hYIEppwb3/qN5BMHi+JO3M+DE6wdFklTRWcaANawazN9SvomN1cmx4KXNlbGYjanVtYmY9YzJwYS5hc3NlcnRpb25zL2MycGEuaGFzaC5kYXRhZGhhc2hYICR3b3j4Ss1OEx5XJSQEfQzF/4YaZF/s3KzxBrF5+3R8Y2FsZ2ZzaGEyNTYAADAQanVtYgAAAChqdW1kYzJjcwARABCAAACqADibcQNjMnBhLnNpZ25hdHVyZQAAAC/gY2JvctKEWQzvogE4JBghglkGPTCCBjkwggQhoAMCAQICEBWN/yesI9K4JUtOYzceHZ4wDQYJKoZIhvcNAQELBQAwdTELMAkGA1UEBhMCVVMxIzAhBgNVBAoTGkFkb2JlIFN5c3RlbXMgSW5jb3Jwb3JhdGVkMR0wGwYDVQQLExRBZG9iZSBUcnVzdCBTZXJ2aWNlczEiMCAGA1UEAxMZQWRvYmUgUHJvZHVjdCBTZXJ2aWNlcyBHMzAeFw0yNDEwMTUwMDAwMDBaFw0yNTEwMTUyMzU5NTlaMIGrMRMwEQYDVQQDDApBZG9iZSBDMlBBMSgwJgYDVQQLDB9Db250ZW50IEF1dGhlbnRpY2l0eSBJbml0aWF0aXZlMRMwEQYDVQQKDApBZG9iZSBJbmMuMREwDwYDVQQHDAhTYW4gSm9zZTETMBEGA1UECAwKQ2FsaWZvcm5pYTELMAkGA1UEBhMCVVMxIDAeBgkqhkiG9w0BCQEWEWNhaS1vcHNAYWRvYmUuY29tMIIBIjANBgkqhkiG9w0BAQEFAAOCAQ8AMIIBCgKCAQEAwxDBgdB9PXLpMXPw5oNgYkFWDPP1aSfth9TZPINOtOQlhp1v4h+hMxZWFjkZ3RJRuoSBrsSSYBaEfiDMKisi/sOxuFHKBV//l1rv3SrjrixANXIlqjGdIYydaMaFa/5ovFz/m4+SUz0ccYzqw+vSAzuRySGnpgm8Gmj+SEJcL/GIHzqU9bUy3NsizY2oY28yj32rbkOqeADSM51OqIJKloEBFFexzMunzpU+K2sLqheoR8FJMaR0fGXa/gqRzhkiBFhwUhLPS9s6+TCnz09UZMlXbdG/iFKj3UPFUDjqh0wtFgcz24DrUlaWeiltKHouymBHuirzvmOG0VtSPepxOQIDAQABo4IBjDCCAYgwDAYDVR0TAQH/BAIwADAOBgNVHQ8BAf8EBAMCB4AwHgYDVR0lBBcwFQYJKoZIhvcvAQEMBggrBgEFBQcDBDCBjgYDVR0gBIGGMIGDMIGABgkqhkiG9y8BAgMwczBxBggrBgEFBQcCAjBlDGNZb3UgYXJlIG5vdCBwZXJtaXR0ZWQgdG8gdXNlIHRoaXMgTGljZW5zZSBDZXJ0aWZpY2F0ZSBleGNlcHQgYXMgcGVybWl0dGVkIGJ5IHRoZSBsaWNlbnNlIGFncmVlbWVudC4wXQYDVR0fBFYwVDBSoFCgToZMaHR0cDovL3BraS1jcmwuc3ltYXV0aC5jb20vY2FfN2E1YzNhMGM3MzExNzQwNmFkZDE5MzEyYmMxYmMyM2YvTGF0ZXN0Q1JMLmNybDA3BggrBgEFBQcBAQQrMCkwJwYIKwYBBQUHMAGGG2h0dHA6Ly9wa2ktb2NzcC5zeW1hdXRoLmNvbTAfBgNVHSMEGDAWgBRXKXoyTcz+5DVOwB8kc85zU6vfajANBgkqhkiG9w0BAQsFAAOCAgEAqrl6FLQ+c9LYaf0igyTgErNL9XmmieiT3ohKFevJ3BN7kWkZD1znbVw3XnX5tgQaKq+AiSCldNxYEKqU+Rq9Lr26GGglBSA0s/Ds2kw+2LlnTmojAHCH3CvVRbhGHHrashmnfgwmF1TSkaWk7NxEhbt9wQoiEMkLSQeM4S4Cu+176FzEdy+zzkDkRWqeSOQO/qG2WRto/vIq30ECf6v6FtazJI1CWIqhBK5oJioSNbLsCVJhar3Uca9D11ujeZW4k2jPCsnzriTmFqVftd3k2SXUQg7wQcQcXfKBItWZt8ztn0IYoZzJa1x9l9dvXKAJvNsDoz4uDerS8z9rzLsEQvzL1yPbTp4+/6mTTAWsoaDtmkZgm3X+sffPX3XzMFmfzIHiYfUja5nKK2bs4P71tit/1U/FD2xdlpzZSupRqCMGz+UTeXI8IrN5ZR/+F8rSsmRAStjnggz/wDucwcDlJbY4/RKq3BrAi4LamLMIfwo/dbL55TDlIOd7HCfmSgabc1WO0Kji3LW/VZnP9VG8WiUG+WqtN1OQIAZmFUOWdXQGLag+I1OaZ1BXJDNsJiXcg2TGNBSEPo44Akfn9MzFGKyB5UurMN4NH0qlamhrhKiV0+b73Fjx330P/frxBmzx5NpAQhNKksx+F4z1S8Ay1o2TBIkkeAFbDzy8f/FxuytZBqUwggahMIIEiaADAgECAhAMqLZUe4nm0gaJdc2Lm4niMA0GCSqGSIb3DQEBCwUAMGwxCzAJBgNVBAYTAlVTMSMwIQYDVQQKExpBZG9iZSBTeXN0ZW1zIEluY29ycG9yYXRlZDEdMBsGA1UECxMUQWRvYmUgVHJ1c3QgU2VydmljZXMxGTAXBgNVBAMTEEFkb2JlIFJvb3QgQ0EgRzIwHhcNMTYxMTI5MDAwMDAwWhcNNDExMTI4MjM1OTU5WjB1MQswCQYDVQQGEwJVUzEjMCEGA1UEChMaQWRvYmUgU3lzdGVtcyBJbmNvcnBvcmF0ZWQxHTAbBgNVBAsTFEFkb2JlIFRydXN0IFNlcnZpY2VzMSIwIAYDVQQDExlBZG9iZSBQcm9kdWN0IFNlcnZpY2VzIEczMIICIjANBgkqhkiG9w0BAQEFAAOCAg8AMIICCgKCAgEAtx8uvb0Js1xIbP4Mg65sAepReCWkgD6Jp7GyiGTa9ol2gfn5HfOV/HiYjZiOz+TuHFU+DXNad86xEqgVeGVMlvIHGe/EHcKBxvEDXdlTXB5zIEkfl0/SGn7J6vTX8MNybfSi95eQDUOZ9fjCaq+PBFjS5ZfeNmzi/yR+MsA0jKKoWarSRCFFFBpUFQWfAgLyXOyxOnXQOQudjxNj6Wu0X0IB13+IH11WcKcWEWXM4j4jh6hLy29Cd3EoVG3oxcVenMF/EMgD2tXjx4NUbTNB1/g9+MR6Nw5Mhp5k/g3atNExAxhtugC+T3SDShSEJfs2quiiRUHtX3RhOcK1s1OJgT5s2s9xGy5/uxVpcAIaK2KiDJXW3xxN8nXPmk1NSVu/mxtfapr4TvSJbhrU7UA3qhQY9n4On2sbH1X1Tw+7LTek8KCA5ZDghOERPiIp/Jt893qov1bE5rJkagcVg0Wqjh89NhCaBA8VyRt3ovlGyCKdNV2UL3bn5vdFsTk7qqmp9makz1/SuVXYxIf6L6+8RXOatXWaPkmucuLE1TPOeP7S1N5JToFCs80l2D2EtxoQXGCR48K/cTUR5zV/fQ+hdIOzoo0nFn77Y8Ydd2k7/x9BE78pmoeMnw6VXYfXCuWEgj6p7jpbLoxQMoWMCVzlg72WVNhJFlSw4aD8fc6ezeECAwEAAaOCATQwggEwMBIGA1UdEwEB/wQIMAYBAf8CAQAwNQYDVR0fBC4wLDAqoCigJoYkaHR0cDovL2NybC5hZG9iZS5jb20vYWRvYmVyb290ZzIuY3JsMA4GA1UdDwEB/wQEAwIBBjAUBgNVHSUEDTALBgkqhkiG9y8BAQcwVwYDVR0gBFAwTjBMBgkqhkiG9y8BAgMwPzA9BggrBgEFBQcCARYxaHR0cHM6Ly93d3cuYWRvYmUuY29tL21pc2MvcGtpL3Byb2Rfc3ZjZV9jcHMuaHRtbDAkBgNVHREEHTAbpBkwFzEVMBMGA1UEAxMMU1lNQy00MDk2LTMzMB0GA1UdDgQWBBRXKXoyTcz+5DVOwB8kc85zU6vfajAfBgNVHSMEGDAWgBSmHOFtVCRMqI9Icr9uqYzV5Owx1DANBgkqhkiG9w0BAQsFAAOCAgEAcc7lB4ym3C3cyOA7ZV4AkoGV65UgJK+faThdyXzxuNqlTQBlOyXBGFyevlm33BsGO1mDJfozuyLyT2+7IVxWFvW5yYMV+5S1NeChMXIZnCzWNXnuiIQSdmPD82TEVCkneQpFET4NDwSxo8/ykfw6Hx8fhuKz0wjhjkWMXmK3dNZXIuYVcbynHLyJOzA+vWU3sH2T0jPtFp7FN39GZne4YG0aVMlnHhtHhxaXVCiv2RVoR4w1QtvKHQpzfPObR53Cl74iLStGVFKPwCLYRSpYRF7J6vVS/XxW4LzvN2b6VEKOcvJmN3LhpxFRl3YYzW+dwnwtbuHW6WJlmjffbLm1MxLFGlG95aCz31X8wzqYNsvb9+5AXcv8Ll69tLXmO1OtsY/3wILNUEp4VLZTE3wqm3n8hMnClZiiKyZCS7L4E0mClbx+BRSMH3eVo6jgve41/fK3FQM4QCNIkpGs7FjjLy+ptC+JyyWqcfvORrFV/GOgB5hD+G5ghJcIpeigD/lHsCRYsOa5sFdqREhwIWLmSWtNwfLZdJ3dkCc7yRpm3gal6qRfTkYpxTNxxKyvKbkaJDoxR9vtWrC3iNrQd9VvxC3TXtuzoHbqumeqgcAqefWF9u6snQ4Q9FkXzeuJArNuSvPIhgBjVtggH0w0vm/lmCQYiC/Y12GeCxfgYlL33buiZnNpZ1RzdKFpdHN0VG9rZW5zgaFjdmFsWQ45MIIONTADAgEAMIIOLAYJKoZIhvcNAQcCoIIOHTCCDhkCAQMxDzANBglghkgBZQMEAgEFADCBggYLKoZIhvcNAQkQAQSgcwRxMG8CAQEGCWCGSAGG/WwHATAxMA0GCWCGSAFlAwQCAQUABCAOqSpELzAcHbeRXwvikTPDFxbUAucrTGLeqMb2+Jb2RAIRAOMH9cPT51sxwIXt1yjvYfoYDzIwMjUwMjEyMTg0NzA0WgIIL0VdGowdIh6gggvAMIIFCjCCAvKgAwIBAgIQDAsvx3p4z7rtZVZUwZokAzANBgkqhkiG9w0BAQsFADBjMQswCQYDVQQGEwJVUzEXMBUGA1UEChMORGlnaUNlcnQsIEluYy4xOzA5BgNVBAMTMkRpZ2lDZXJ0IFRydXN0ZWQgRzQgUlNBNDA5NiBTSEEyNTYgVGltZVN0YW1waW5nIENBMB4XDTI0MTEyMDAwMDAwMFoXDTM2MDIxOTIzNTk1OVowWzELMAkGA1UEBhMCVVMxETAPBgNVBAoTCERpZ2lDZXJ0MTkwNwYDVQQDEzBFQ0MyNTZfU0hBMjU2X1RpbWVzdGFtcF9SZXNwb25kZXJfQWRvYmVfTk9WXzIwMjQwWTATBgcqhkjOPQIBBggqhkjOPQMBBwNCAATQ/B6F+IGYpiqQQLxOfqkUmeTmSRWZzxSCtwM82siW/SbXazktRyEWmwIVs+8PJjhV9C4fUJ23IGRxsfzJM8leo4IBizCCAYcwDgYDVR0PAQH/BAQDAgeAMAwGA1UdEwEB/wQCMAAwFgYDVR0lAQH/BAwwCgYIKwYBBQUHAwgwIAYDVR0gBBkwFzAIBgZngQwBBAIwCwYJYIZIAYb9bAcBMB8GA1UdIwQYMBaAFLoW2W1NhS9zKXaaL3WMaiCPnshvMB0GA1UdDgQWBBTs0RxvfOegTeQxP4cACNSt1H02uzBaBgNVHR8EUzBRME+gTaBLhklodHRwOi8vY3JsMy5kaWdpY2VydC5jb20vRGlnaUNlcnRUcnVzdGVkRzRSU0E0MDk2U0hBMjU2VGltZVN0YW1waW5nQ0EuY3JsMIGQBggrBgEFBQcBAQSBgzCBgDAkBggrBgEFBQcwAYYYaHR0cDovL29jc3AuZGlnaWNlcnQuY29tMFgGCCsGAQUFBzAChkxodHRwOi8vY2FjZXJ0cy5kaWdpY2VydC5jb20vRGlnaUNlcnRUcnVzdGVkRzRSU0E0MDk2U0hBMjU2VGltZVN0YW1waW5nQ0EuY3J0MA0GCSqGSIb3DQEBCwUAA4ICAQCi7MEg8nkvLauLI7cAj21DgnMErh0mntCt4c4tsW9yJQZdZv1n8E1dueayb6IiZ8mYambImrTeuVKwGqUSITZTiVhtFRP3zRD9DpFk+Ex4P010IStH/eD1lgK6bVfaY0gvzcIRQP3CwIzqBZAE81c5QINjPs81cvJLOFKd/cX7zOhoQvrziNDy15UNT5fuURe2fioANQsRNYOmVXAdg2TK7OktYD+EH/D8gWr7nHQhRJMuD54GNjiZnNPnYXz6F3j7Bu2aVlirvQGAAsrW27Lqhg9ksW5+aL+g9/lyqRoMrWLSy4KDQaztPB+PKskecO1R7dbJbw7UBFVl+GbGaUc4x6HvVLNNL5hHjiLrf9A4zxe52e9ZqpSU7kDu7dsRXvm+uLLMXjHFSx/j0stIcxnQHwOL4A5RRuUH1Xw1wz2CiGvIHNcoYrkqfkb6TsKJU7ntDqNKFKZ349sBErTdXwVoId4zS/cV/A5rO1Kw5aNO/zUTCtQkbcMg88XGWqImaYmIHhIvHaE1nRdPWCa0QhrxvioeP45p4/zqd/JrVbNsoEuEBSRIPB3+ViLaoFlimZRUePzwKYvyTrd6g72mVtF4Prbbvy1kqCUmsZDMFqn33DR0N8Qzqkzir3bufNyI5k95Rq3NXcbfNYDx9qZ8gjCu4NHtSxAdJKswzb9gi6jyFTCCBq4wggSWoAMCAQICEAc2N7ckVHzYR6z9KGYqXlswDQYJKoZIhvcNAQELBQAwYjELMAkGA1UEBhMCVVMxFTATBgNVBAoTDERpZ2lDZXJ0IEluYzEZMBcGA1UECxMQd3d3LmRpZ2ljZXJ0LmNvbTEhMB8GA1UEAxMYRGlnaUNlcnQgVHJ1c3RlZCBSb290IEc0MB4XDTIyMDMyMzAwMDAwMFoXDTM3MDMyMjIzNTk1OVowYzELMAkGA1UEBhMCVVMxFzAVBgNVBAoTDkRpZ2lDZXJ0LCBJbmMuMTswOQYDVQQDEzJEaWdpQ2VydCBUcnVzdGVkIEc0IFJTQTQwOTYgU0hBMjU2IFRpbWVTdGFtcGluZyBDQTCCAiIwDQYJKoZIhvcNAQEBBQADggIPADCCAgoCggIBAMaGNQZJs8E9cklRVcclA8TykTepl1Gh1tKD0Z5Mom2gsMyD+Vr2EaFEFUJfpIjzaPp985yJC3+dH54PMx9QEwsmc5Zt+FeoAn39Q7SE2hHxc7Gz7iuAhIoiGN/r2j3EF3+rGSs+QtxnjupRPfDWVtTnKC3r07G1decfBmWNlCnT2exp39mQh0YAe9tEQYncfGpXevA3eZ9drMvohGS0UvJ2R/dhgxndX7RUCyFobjchu0CsX7LeSn3O9TkSZ+8OpWNs5KbFHc02DVzV5huowWR0QKfAcsW6Th+xtVhNef7Xj3OTrCw54qVI1vCwMROpVymWJy71h6aPTnYVVSZwmCZ/oBpHIEPjQ2OAe3VuJyWQmDo4EbP29p7mO1vsgd4iFNmCKseSv6De4z6ic/rnH1pslPJSlRErWHRAKKtzQ87fSqEcazjFKfPKqpZzQmiftkaznTqj1QPgv/CiPMpC3BhIfxQ0z9JMq++bPf4OuGQq+nUoJEHtQr8FnGZJUlD0UfM2SU2LINIsVzV5K6jzRWC8I41Y99xh3pP+OcD5sjClTNfpmEpYPtMDiP6zj9NeS3YSUZPJjAw7W4oiqMEmCPkUEBIDfV8ju2TjY+Cm4T72wnSyPx4JduyrXUZ14mCjWAkBKAAOhFTuzuldyF4wEr1GnrXTdrnSDmuZDNIztM2xAgMBAAGjggFdMIIBWTASBgNVHRMBAf8ECDAGAQH/AgEAMB0GA1UdDgQWBBS6FtltTYUvcyl2mi91jGogj57IbzAfBgNVHSMEGDAWgBTs1+OC0nFdZEzfLmc/57qYrhwPTzAOBgNVHQ8BAf8EBAMCAYYwEwYDVR0lBAwwCgYIKwYBBQUHAwgwdwYIKwYBBQUHAQEEazBpMCQGCCsGAQUFBzABhhhodHRwOi8vb2NzcC5kaWdpY2VydC5jb20wQQYIKwYBBQUHMAKGNWh0dHA6Ly9jYWNlcnRzLmRpZ2ljZXJ0LmNvbS9EaWdpQ2VydFRydXN0ZWRSb290RzQuY3J0MEMGA1UdHwQ8MDowOKA2oDSGMmh0dHA6Ly9jcmwzLmRpZ2ljZXJ0LmNvbS9EaWdpQ2VydFRydXN0ZWRSb290RzQuY3JsMCAGA1UdIAQZMBcwCAYGZ4EMAQQCMAsGCWCGSAGG/WwHATANBgkqhkiG9w0BAQsFAAOCAgEAfVmOwJO2b5ipRCIBfmbW2CFC4bAYLhBNE88wU86/GPvHUF3iSyn7cIoNqilp/GnBzx0H6T5gyNgL5Vxb122H+oQgJTQxZ822EpZvxFBMYh0MCIKoFr2pVs8Vc40BIiXOlWk/R3f7cnQU1/+rT4osequFzUNf7WC2qk+RZp4snuCKrOX9jLxkJodskr2dfNBwCnzvqLx1T7pa96kQsl3p/yhUifDVinF2ZdrM8HKjI/rAJ4JErpknG6skHibBt94q6/aesXmZgaNWhqsKRcnfxI2g55j7+6adcq/Ex8HBanHZxhOACcS2n82HhyS7T6NJuXdmkfFynOlLAlKnN36TU6w7HQhJD5TNOXrd/yVjmScsPT9rp/Fmw0HNT7ZAmyEhQNC3EyTN3B14OuSereU0cZLXJmvkOHOrpgFPvT87eK1MrfvElXvtCl8zOYdBeHo46Zzh3SP9HSjTx/no8Zhf+yvYfvJGnXUsHicsJttvFXseGYs2uJPU5vIXmVnKcPA3v5gA3yAWTyf7YGcWoWa63VXAOimGsJigK+2VQbc61RWYMbRiCQ8KvYHZE/6/pNHzV9m8BPqC3jLfBInwAM1dwvnQI38AC+R2AibZ8GV2QqYphwlHK+Z/GqSFD/yYlvZVVCsfgPrA8g4r5db7qS9EFUrnEw4d2zc4GqEr9u3WfPwxggG4MIIBtAIBATB3MGMxCzAJBgNVBAYTAlVTMRcwFQYDVQQKEw5EaWdpQ2VydCwgSW5jLjE7MDkGA1UEAxMyRGlnaUNlcnQgVHJ1c3RlZCBHNCBSU0E0MDk2IFNIQTI1NiBUaW1lU3RhbXBpbmcgQ0ECEAwLL8d6eM+67WVWVMGaJAMwDQYJYIZIAWUDBAIBBQCggdEwGgYJKoZIhvcNAQkDMQ0GCyqGSIb3DQEJEAEEMBwGCSqGSIb3DQEJBTEPFw0yNTAyMTIxODQ3MDRaMCsGCyqGSIb3DQEJEAIMMRwwGjAYMBYEFPcTAlRkG5zO0lEtYsW/nymEjPz4MC8GCSqGSIb3DQEJBDEiBCCC6A/2XcBoRgh3ExYxbXaerg3TZnWjkP0jJO1PomqMHjA3BgsqhkiG9w0BCRACLzEoMCYwJDAiBCC5eiZoHRjpuXxjPvhIOWRVdZeW2lBDRCyPjM3lJ+AAqTAKBggqhkjOPQQDAgRHMEUCIQD39xaOEgTNhre2JekurzoaZTVbkLtuXQGrBpBSv2deXwIgEjHihOrfp1szssCEeBLXg2qKQ5GWwoP/YowXS8RGF/ZjcGFkWROEAAAAAAAAAAAAAAAAAAAAAAAAAAAAAAAAAAAAAAAAAAAAAAAAAAAAAAAAAAAAAAAAAAAAAAAAAAAAAAAAAAAAAAAAAAAAAAAAAAAAAAAAAAAAAAAAAAAAAAAAAAAAAAAAAAAAAAAAAAAAAAAAAAAAAAAAAAAAAAAAAAAAAAAAAAAAAAAAAAAAAAAAAAAAAAAAAAAAAAAAAAAAAAAAAAAAAAAAAAAAAAAAAAAAAAAAAAAAAAAAAAAAAAAAAAAAAAAAAAAAAAAAAAAAAAAAAAAAAAAAAAAAAAAAAAAAAAAAAAAAAAAAAAAAAAAAAAAAAAAAAAAAAAAAAAAAAAAAAAAAAAAAAAAAAAAAAAAAAAAAAAAAAAAAAAAAAAAAAAAAAAAAAAAAAAAAAAAAAAAAAAAAAAAAAAAAAAAAAAAAAAAAAAAAAAAAAAAAAAAAAAAAAAAAAAAAAAAAAAAAAAAAAAAAAAAAAAAAAAAAAAAAAAAAAAAAAAAAAAAAAAAAAAAAAAAAAAAAAAAAAAAAAAAAAAAAAAAAAAAAAAAAAAAAAAAAAAAAAAAAAAAAAAAAAAAAAAAAAAAAAAAAAAAAAAAAAAAAAAAAAAAAAAAAAAAAAAAAAAAAAAAAAAAAAAAAAAAAAAAAAAAAAAAAAAAAAAAAAAAAAAAAAAAAAAAAAAAAAAAAAAAAAAAAAAAAAAAAAAAAAAAAAAAAAAAAAAAAAAAAAAAAAAAAAAAAAAAAAAAAAAAAAAAAAAAAAAAAAAAAAAAAAAAAAAAAAAAAAAAAAAAAAAAAAAAAAAAAAAAAAAAAAAAAAAAAAAAAAAAAAAAAAAAAAAAAAAAAAAAAAAAAAAAAAAAAAAAAAAAAAAAAAAAAAAAAAAAAAAAAAAAAAAAAAAAAAAAAAAAAAAAAAAAAAAAAAAAAAAAAAAAAAAAAAAAAAAAAAAAAAAAAAAAAAAAAAAAAAAAAAAAAAAAAAAAAAAAAAAAAAAAAAAAAAAAAAAAAAAAAAAAAAAAAAAAAAAAAAAAAAAAAAAAAAAAAAAAAAAAAAAAAAAAAAAAAAAAAAAAAAAAAAAAAAAAAAAAAAAAAAAAAAAAAAAAAAAAAAAAAAAAAAAAAAAAAAAAAAAAAAAAAAAAAAAAAAAAAAAAAAAAAAAAAAAAAAAAAAAAAAAAAAAAAAAAAAAAAAAAAAAAAAAAAAAAAAAAAAAAAAAAAAAAAAAAAAAAAAAAAAAAAAAAAAAAAAAAAAAAAAAAAAAAAAAAAAAAAAAAAAAAAAAAAAAAAAAAAAAAAAAAAAAAAAAAAAAAAAAAAAAAAAAAAAAAAAAAAAAAAAAAAAAAAAAAAAAAAAAAAAAAAAAAAAAAAAAAAAAAAAAAAAAAAAAAAAAAAAAAAAAAAAAAAAAAAAAAAAAAAAAAAAAAAAAAAAAAAAAAAAAAAAAAAAAAAAAAAAAAAAAAAAAAAAAAAAAAAAAAAAAAAAAAAAAAAAAAAAAAAAAAAAAAAAAAAAAAAAAAAAAAAAAAAAAAAAAAAAAAAAAAAAAAAAAAAAAAAAAAAAAAAAAAAAAAAAAAAAAAAAAAAAAAAAAAAAAAAAAAAAAAAAAAAAAAAAAAAAAAAAAAAAAAAAAAAAAAAAAAAAAAAAAAAAAAAAAAAAAAAAAAAAAAAAAAAAAAAAAAAAAAAAAAAAAAAAAAAAAAAAAAAAAAAAAAAAAAAAAAAAAAAAAAAAAAAAAAAAAAAAAAAAAAAAAAAAAAAAAAAAAAAAAAAAAAAAAAAAAAAAAAAAAAAAAAAAAAAAAAAAAAAAAAAAAAAAAAAAAAAAAAAAAAAAAAAAAAAAAAAAAAAAAAAAAAAAAAAAAAAAAAAAAAAAAAAAAAAAAAAAAAAAAAAAAAAAAAAAAAAAAAAAAAAAAAAAAAAAAAAAAAAAAAAAAAAAAAAAAAAAAAAAAAAAAAAAAAAAAAAAAAAAAAAAAAAAAAAAAAAAAAAAAAAAAAAAAAAAAAAAAAAAAAAAAAAAAAAAAAAAAAAAAAAAAAAAAAAAAAAAAAAAAAAAAAAAAAAAAAAAAAAAAAAAAAAAAAAAAAAAAAAAAAAAAAAAAAAAAAAAAAAAAAAAAAAAAAAAAAAAAAAAAAAAAAAAAAAAAAAAAAAAAAAAAAAAAAAAAAAAAAAAAAAAAAAAAAAAAAAAAAAAAAAAAAAAAAAAAAAAAAAAAAAAAAAAAAAAAAAAAAAAAAAAAAAAAAAAAAAAAAAAAAAAAAAAAAAAAAAAAAAAAAAAAAAAAAAAAAAAAAAAAAAAAAAAAAAAAAAAAAAAAAAAAAAAAAAAAAAAAAAAAAAAAAAAAAAAAAAAAAAAAAAAAAAAAAAAAAAAAAAAAAAAAAAAAAAAAAAAAAAAAAAAAAAAAAAAAAAAAAAAAAAAAAAAAAAAAAAAAAAAAAAAAAAAAAAAAAAAAAAAAAAAAAAAAAAAAAAAAAAAAAAAAAAAAAAAAAAAAAAAAAAAAAAAAAAAAAAAAAAAAAAAAAAAAAAAAAAAAAAAAAAAAAAAAAAAAAAAAAAAAAAAAAAAAAAAAAAAAAAAAAAAAAAAAAAAAAAAAAAAAAAAAAAAAAAAAAAAAAAAAAAAAAAAAAAAAAAAAAAAAAAAAAAAAAAAAAAAAAAAAAAAAAAAAAAAAAAAAAAAAAAAAAAAAAAAAAAAAAAAAAAAAAAAAAAAAAAAAAAAAAAAAAAAAAAAAAAAAAAAAAAAAAAAAAAAAAAAAAAAAAAAAAAAAAAAAAAAAAAAAAAAAAAAAAAAAAAAAAAAAAAAAAAAAAAAAAAAAAAAAAAAAAAAAAAAAAAAAAAAAAAAAAAAAAAAAAAAAAAAAAAAAAAAAAAAAAAAAAAAAAAAAAAAAAAAAAAAAAAAAAAAAAAAAAAAAAAAAAAAAAAAAAAAAAAAAAAAAAAAAAAAAAAAAAAAAAAAAAAAAAAAAAAAAAAAAAAAAAAAAAAAAAAAAAAAAAAAAAAAAAAAAAAAAAAAAAAAAAAAAAAAAAAAAAAAAAAAAAAAAAAAAAAAAAAAAAAAAAAAAAAAAAAAAAAAAAAAAAAAAAAAAAAAAAAAAAAAAAAAAAAAAAAAAAAAAAAAAAAAAAAAAAAAAAAAAAAAAAAAAAAAAAAAAAAAAAAAAAAAAAAAAAAAAAAAAAAAAAAAAAAAAAAAAAAAAAAAAAAAAAAAAAAAAAAAAAAAAAAAAAAAAAAAAAAAAAAAAAAAAAAAAAAAAAAAAAAAAAAAAAAAAAAAAAAAAAAAAAAAAAAAAAAAAAAAAAAAAAAAAAAAAAAAAAAAAAAAAAAAAAAAAAAAAAAAAAAAAAAAAAAAAAAAAAAAAAAAAAAAAAAAAAAAAAAAAAAAAAAAAAAAAAAAAAAAAAAAAAAAAAAAAAAAAAAAAAAAAAAAAAAAAAAAAAAAAAAAAAAAAAAAAAAAAAAAAAAAAAAAAAAAAAAAAAAAAAAAAAAAAAAAAAAAAAAAAAAAAAAAAAAAAAAAAAAAAAAAAAAAAAAAAAAAAAAAAAAAAAAAAAAAAAAAAAAAAAAAAAAAAAAAAAAAAAAAAAAAAAAAAAAAAAAAAAAAAAAAAAAAAAAAAAAAAAAAAAAAAAAAAAAAAAAAAAAAAAAAAAAAAAAAAAAAAAAAAAAAAAAAAAAAAAAAAAAAAAAAAAAAAAAAAAAAAAAAAAAAAAAAAAAAAAAAAAAAAAAAAAAAAAAAAAAAAAAAAAAAAAAAAAAAAAAAAAAAAAAAAAAAAAAAAAAAAAAAAAAAAAAAAAAAAAAAAAAAAAAAAAAAAAAAAAAAAAAAAAAAAAAAAAAAAAAAAAAAAAAAAAAAAAAAAAAAAAAAAAAAAAAAAAAAAAAAAAAAAAAAAAAAAAAAAAAAAAAAAAAAAAAAAAAAAAAAAAAAAAAAAAAAAAAAAAAAAAAAAAAAAAAAAAAAAAAAAAAAAAAAAAAAAAAAAAAAAAAAAAAAAAAAAAAAAAAAAAAAAAAAAAAAAAAAAAAAAAAAAAAAAAAAAAAAAAAAAAAAAAAAAAAAAAAAAAAAAAAAAAAAAAAAAAAAAAAAAAAAAAAAAAAAAAAAAAAAAAAAAAAAAAAAAAAAAAAAAAAAAAAAAAAAAAAAAAAAAAAAAAAAAAAAAAAAAAAAAAAAAAAAAAAAAAAAAAAAAAAAAAAAAAAAAAAAAAAAAAAAAAAAAAAAAAAAAAAAAAAAAAAAAAAAAAAAAAAAAAAAAAAAAAAAAAAAAAAAAAAAAAAAAAAAAAAAAAAAAAAAAAAAAAAAAAAAAAAAAAAAAAAAAAAAAAAAAAAAAAAAAAAAAAAAAAAAAAAAAAAAAAAAAAAAAAAAAAAAAAAAAAAAAAAAAAAAAAAAAAAAAAAAAAAAAAAAAAAAAAAAAAAAAAAAAAAAAAAAAAAAAAAAAAAAAAAAAAAAAAAAAAAAAAAAAAAAAAAAAAAAAAAAAAAAAAAAAAAAAAAAAAAAAAAAAAAAAAAAAAAAAAAAAAAAAAAAAAAAAAAAAAAAAAAAAAAAAAAAAAAAAAAAAAAAAAAAAAAAAAAAAAAAAAAAAAAAAAAAAAAAAAAAAAAAAAAAAAAAAAAAAAAAAAAAAAAAAAAAAAAAAAAAAAAAAAAAAAAAAAAAAAAAAAAAAAAAAAAAAAAAAAAAAAAAAAAAAAAAAAAAAAAAAAAAAAAAAAAAAAAAAAAAAAAAAAAAAAAAAAAAAAAAAAAAAAAAAAAAAAAAAAAAAAAAAAAAAAAAAAAAAAAAAAAAAAAAAAAAAAAAAAAAAAAAAAAAAAAAAAAAAAAAAAAAAAAAAAAAAAAAAAAAAAAAAAAAAAAAAAAAAAAAAAAAAAAAAAAAAAAAAAAAAAAAAAAAAAAAAAAAAAAAAAAAAAAAAAAAAAAAAAAAAAAAAAAAAAAAAAAAAAAAAAAAAAAAAAAAAAAAAAAAAAAAAAAAAAAAAAAAAAAAAAAAAAAAAAAAAAAAAAAAAAAAAAAAAAAAAAAAAAAAAAAAAAAAAAAAAAAAAAAAAAAAAAAAAAAAAAAAAAAAAAAAAAAAAAAAAAAAAAAAAAAAAAAAAAAAAAAAAAAAAAAAAAAAAAAAAAAAAAAAAAAAAAAAAAAAAAAAAAAAAAAAAAAAAAAAAAAAAAAAAAAAAAAAAAAAAAAAAAAAAAAAAAAAAAAAAAAAAAAAAAAAAAAAAAAAAAAAAAAAAAAAAAAAAAAAAAAAAAAAAAAAAAAAAAAAAAAAAAAAAAAAAAAAAAAAAAAAAAAAAAAAAAAAAAAAAAAAAAAAAAAAAAAAAAAAAAAAAAAAAAAAAAAAAAAAAAAAAAAAAAAAAAAAAAAAAAAAAAAAAAAAAAAAAAAAAAAAAAAAAAAAAAAAAAAAAAAAAAAAAAAAAAAAAAAAAAAAAAAAAAAAAAAAAAAAAAAAAAAAAAAAAAAAAAAAAAAAAAAAAAAAAAAAAAAAAAAAAAAAAAAAAAAAAAAAAAAAAAAAAAAAAAAAAAAAAAAAAAAAAAAAAAAAAAAAAAAAAAAAAAAAAAAAAAAAAAAAAAAAAAAAAAAAAAAAAAAAAAAAAAAAAAAAAAAAAAAAAAAAAAAAAAAAAAAAAAAAAAAAAAAAAAAAAAAAAAAAAAAAAAAAAAAAAAAAAAAAAAAAAAAAAAAAAAAAAAAAAAAAAAAAAAAAAAAAAAAAAAAAAAAAAAAAAAAAAAAAAAAAAAAAAAAAAAAAAAAAAAAAAAAAAAAAAAAAAAAAAAAAAAAAAAAAAAAAAAAAAAAAAAAAAAAAAAAAAAAAAAAAAAAAAAAAAAAAAAAAAAAAAAAAAAAAAAAAAAAAAAAAAAAAAAAAAAAAAAAAAAAAAAAAAAAAAAAAAAAAAAAAAAAAAAAAAAAAAAAAAAAAAAAAAAAAAAAAAAAAAAAAAAAAAAAAAAAAAAAAAAAAAAAAAAAAAAAAAAAAAAAAAAAAAAAAAAAAAAAAAAAAAAAAAAAAAAAAAAAAAAAAAAAAAAAAAAAAAAAAAAAAAAAAAAAAAAAAAAAAAAAAAAAAAAAAAAAAAAAAAAAAAAAAAAAAAAAAAAAAAAAAAAAAAAAAAAAAAAAAAAAAAAAAAAAAAAAAAAAAAAAAAAAAAAAAAAAAAAAAAAAAAAAAAAAAAAAAAAAAAAAAAAAAAAAAAAAAAAAAAAAAAAAAAAAAAAAAAAAAAAAAAAAAAAAAAAAAAAAAAAAAAAAAAAAAAAAAAAAAAAAAAAAAAAAAAAAAAAAAAAAAAAAAAAAAAAAAAAAAAAAAAAAAAAAAAAAAAAAAAAAAAAAAAAAAAAAAAAAAAAAAAAAAAAAAAAAAAAAAAAAAAAAAAAAAAAAAAAAAAAAAAAAAAAAAAAAAAAAAAAAAAAAAAAAAAAAAAAAAAAAAAAAAAAAAAAAAAAAAAAAAAAAAAAAAAAAAAAAAAAAAAAAAAAAAAAAAAAAAAAAAAAAAAAAAAAAAAAAAAAAAAAAAAAAAAAAAAAAAAAAAAAAAAAAAAAAAAAAAAAAAAAAAAAAAAAAAAAAAAAAAAAAAAAAAAAAAAAAAAAAAAAAAAAAAAAAAAAAAAAAAAAAAAAAAAAAAAAAAAAAAAAAAAAAAAAAAAAAAAAAAAAAAAAAAAAAAAAAAAAAAAAAAAAAAAAAAAAAAAAAAAAAAAAAAAAAAAAAAAAAAAAAAAAAAAAAAAAAAAAAAAAAAAAAAAAAAAAAAAAAAPZZAQBtE3vqa2lhVIK6K1Q7UtxCdjrcHl7J/EgF6dU2GI8yu+MZkc2x5k2oBIV2Ck8HlouR+BeKCj/zAyU8SMeTvAIzpUKcK3pLwEjz5zCvwUJYGyDu32VPqQl/gI6KqPCH2uNaNZE7KzyUtqdzJu7A1LxkKgOMz7NLQocPPX7LrkNxlFjV+TqVsAkbo6pri5NajdXPc6msK2CHKz+teJnFV5wQFW2cXZBRFBRlROTdcnRzMNbsiZKQwRY8LM5AQSupfE0TfTKs0/EOh+B/yfjVNEyx0GUpwGWu+DnbpVC8Ww9zs9btPZfTZMKezJo+e3rZCEMq3bWiZHynUrOVc0SIoY60</c2pa:manifest></metadata>
  <defs>
    <style>
      .cls-1 {
        isolation: isolate;
      }
    </style>
  </defs>
  <g class="cls-1">
    <g class="cls-1">
      <path d="M219.4,374.7c-3.8,0-6.6-1.1-8.5-3.2s-2.8-5.1-2.8-9v-6.6c0-3.9.9-6.9,2.8-9,1.9-2.1,4.7-3.2,8.5-3.2s2.2.1,3.2.3c1,.2,1.8.5,2.6.8s1.4.7,2,1l.4,4.3c-.9-.6-2-1.2-3.2-1.6-1.2-.5-2.6-.7-4.3-.7-2.4,0-4.2.7-5.4,2.1s-1.8,3.4-1.8,6v6.4c0,2.6.6,4.6,1.9,6,1.2,1.4,3.1,2.1,5.5,2.1s3-.2,4.3-.7c1.2-.5,2.3-1,3.3-1.7l-.4,4.4c-.5.4-1.2.7-2,1s-1.7.6-2.7.8c-1,.2-2.1.3-3.3.3l-.1.2Z"/>
    </g>
    <g class="cls-1">
      <path d="M231.1,374.1l9.1-29.7h7.2l9.1,29.7h-4.7l-7.7-26.6h-.6l-7.7,26.6h-4.7ZM237.1,365.8v-3.9h13.5v3.9h-13.5Z"/>
      <path d="M261.8,374.1v-29.7h4.6v29.8h-4.6v-.1ZM264.9,364.6v-3.9h8.2c1.9,0,3.2-.5,4.1-1.4s1.3-2.2,1.3-3.9v-2c0-1.7-.4-3-1.3-3.9s-2.2-1.3-4-1.3h-8.3v-3.8h8.4c3.4,0,5.9.8,7.5,2.4s2.4,3.8,2.4,6.6v2.3c0,2.8-.8,5-2.4,6.6s-4.1,2.4-7.5,2.4h-8.3l-.1-.1Z"/>
      <path d="M293.9,374.1h-4.7v-29.7h4.7v29.7Z"/>
    </g>
    <g class="cls-1">
      <path d="M298.1,348.3v-3.9h22.2v3.9h-22.2ZM306.8,374.1v-28.9h4.7v28.9h-4.7Z"/>
    </g>
    <g class="cls-1">
      <path d="M319.5,374.1l9.1-29.7h7.2l9.1,29.7h-4.7l-7.7-26.6h-.6l-7.7,26.6h-4.7,0ZM325.5,365.8v-3.9h13.5v3.9h-13.5Z"/>
      <path d="M354.9,374.1h-4.7v-29.7h4.7v29.7ZM352.8,370.2h15.6v4h-15.6v-4Z"/>
    </g>
  </g>
  <path d="M348.1,105C264.7-2.6,129.6-2.6,46.2,105l-16,20.6,16,20.6c83.4,107.6,218.5,107.6,301.9,0l16-20.6-16-20.6h0ZM260,123.9c.6,16.6-5.3,32.3-16.6,44.5-11.3,12.1-26.6,19.1-43.2,19.7h-2.3c-15.7,0-30.7-5.9-42.2-16.6-9.2-8.6-15.5-19.5-18.2-31.7-.3-1.5.6-2.9,2.1-3.3.7-.2,1.5,0,2.1.4s1.1,1,1.2,1.7c2.5,11.1,8.2,21.1,16.6,28.9,11,10.3,25.4,15.6,40.5,15.1s29.1-6.9,39.3-18c10.3-11,15.6-25.4,15.1-40.5-.5-15.1-6.9-29.1-18-39.3-11.1-10.3-25.4-15.6-40.5-15.1s-29.1,6.9-39.3,18c-2.5,2.7-4.7,5.6-6.6,8.7-.8,1.3-2.5,1.7-3.8.9-.6-.4-1.1-1-1.2-1.7s0-1.5.3-2.1c2.1-3.4,4.6-6.6,7.3-9.5,11.3-12.1,26.6-19.1,43.2-19.7,16.6-.6,32.3,5.3,44.5,16.6s19.1,26.6,19.7,43.2h0v-.2ZM212.8,120.7c3.4,0,6.3-1.9,7.8-4.6,1.4,3.1,2.2,6.5,2.2,10.1,0,13.2-10.7,24-24,24s-24-10.7-24-24,10.7-24,24-24,6.7.7,9.6,2c-2.7,1.5-4.5,4.4-4.5,7.7,0,4.9,4,8.9,8.9,8.9h0v-.1ZM215,105.5c.5.1,1,.3,1.4.4l.2,2.4c-.4-.2-.9-.3-1.4-.5-.5-.1-1-.2-1.6-.2h-.9c-.2,0-.4.1-.4.2,0,0-.1.2-.1.3h0c0,.2,0,.3.1.4s.3.2.5.3c.2.1.6.2,1.1.4.7.2,1.2.4,1.7.7.5.2.8.5,1,.9s.4.9.4,1.5h0c0,1.1-.3,1.9-1,2.4-.4.3-1,.5-1.7.7v1.4h-2.3v-1.4h-.3c-.4,0-.8-.1-1.1-.2-.3,0-.6-.2-.9-.3l-.2-2.6c.4.2.9.3,1.5.5s1.2.2,1.8.2.9,0,1.2-.2.3-.3.3-.6h0c0-.2,0-.3-.2-.4s-.3-.2-.5-.3-.6-.2-1-.3c-.7-.2-1.2-.4-1.7-.7s-.8-.6-1.1-1c-.2-.4-.4-.9-.4-1.5h0c0-1.1.3-1.8,1-2.2.4-.3,1-.5,1.7-.6v-1.4h2.3v1.4h.7l-.1.3ZM204.6,88.1c-10.2-1.2-20.2,1.6-28.3,8-8.1,6.3-13.1,15.5-14.4,25.7-1.2,10.2,1.6,20.2,8,28.3s15.5,13.2,25.6,14.4c7.9.9,15.7-.6,22.7-4.3,6.8-3.7,12.3-9.2,15.9-16,.7-1.3,2.4-1.9,3.7-1.2.7.4,1.1.9,1.4,1.6.2.7.1,1.4-.2,2.1-4.1,7.8-10.4,14.1-18.1,18.3-6.4,3.4-13.5,5.2-20.7,5.2s-3.5-.1-5.2-.3c-11.6-1.4-22-7.2-29.3-16.4s-10.5-20.7-9.1-32.3c1.4-11.7,7.2-22,16.4-29.3s20.7-10.5,32.3-9.1c16.4,1.9,30.1,12.7,35.9,28.2.3.7.2,1.4,0,2.1s-.9,1.2-1.5,1.4c-1.4.6-3-.2-3.5-1.6-5.1-13.5-17.1-22.9-31.4-24.6h0l-.2-.2ZM260.8,188.2c-16.6,16.6-38.6,25.7-62,25.7s-45.5-9.1-62-25.7c-16.6-16.6-25.7-38.6-25.7-62s9.1-45.5,25.7-62c16.6-16.6,38.6-25.7,62-25.7s6.7.2,10,.6c.7,0,1.4.5,1.8,1,.5.6.7,1.3.6,2s-.4,1.4-1,1.8c-.6.5-1.3.7-2,.6-3.1-.3-6.2-.5-9.4-.5-22,0-42.6,8.6-58.2,24.1-15.5,15.5-24.1,36.2-24.1,58.2s8.6,42.6,24.1,58.1,36.2,24.1,58.1,24.1,42.6-8.6,58.2-24.1c15.5-15.5,24.1-36.2,24.1-58.2s-5.6-34.9-16.3-49.1c-.4-.6-.6-1.3-.5-2.1.1-.7.5-1.4,1.1-1.8s1.3-.6,2-.5,1.4.5,1.8,1.1c11.4,15.2,17.4,33.4,17.4,52.4s-9.1,45.5-25.7,62h0Z"/>
  <g>
    <path d="M105,324l-9.4-15.9h0l-6.6-11.1-12.3-20.6-28.1,47.6h-16.3l35.4-58.9c1.7-2.8,4.6-4.4,7.9-4.4h8.6l38.1,63.3h-17.3Z"/>
    <path d="M181.2,257h14v37.4c0,20.7-10.4,30.5-36.8,30.5s-36.8-9.8-36.8-30.5v-37.4h14.8v37.4c0,11.9,5.2,16.4,22.4,16.4s22.3-4.5,22.3-16.4v-37.4h.1Z"/>
    <path d="M200.4,257h17.5l28,47.8,27.9-47.8h16.5l-38.1,63.3h-13.8l-38.1-63.3h.1Z"/>
    <path d="M309.3,305.9v-13.9h34.8c7,0,11.1-4.1,11.1-10.3s-4.1-10.3-11.1-10.3h-33.4v52.6h-14.3v-67h47.6c15.8,0,25.1,9.4,25.1,24.2s-9.3,24.7-25.1,24.7h-34.9.2Z"/>
  </g>
  <path d="M30.5,356.5h165.2v5.9H36.3c-3.2,0-5.9-2.6-5.8-5.9Z"/>
</svg>