<?xml version="1.0" encoding="UTF-8"?>
<svg id="Camada_1" data-name="Camada 1" xmlns="http://www.w3.org/2000/svg" viewBox="0 0 5710.98 1229.62">
  <defs>
    <style>
      .cls-1 {
        fill: #000;
        stroke-width: 0px;
      }
    </style>
  </defs>
  <g>
    <path class="cls-1" d="M3842.48,488.92c20.4-3.15,40.72-6.29,61.57-9.51v69.8h88.78c-2.37,11.93-4.63,23.26-6.88,34.58-.77,3.87-1.76,7.72-2.25,11.63-.47,3.71-1.88,5.06-5.9,5.02-22.74-.23-45.48-.11-68.22-.11h-5.42c0,1.97,0,3.34,0,4.71,0,29.38-.1,58.76.08,88.13.04,7.03.54,14.14,1.69,21.07,2.62,15.76,11.16,24.3,27.08,25.55,15.31,1.21,30.74.89,46.12,1.22,3.07.07,6.15,0,9.7,0-3.46,17.08-6.81,33.62-10.16,50.14-.56.16-.96.38-1.36.37-21.44-.55-42.9-.74-64.32-1.83-11.14-.57-21.95-3.59-32.24-8.19-20.05-8.96-30.73-25.19-34.81-45.98-2.03-10.33-3.4-20.98-3.44-31.49-.31-70.48-.18-140.96-.18-211.44,0-1.12.11-2.23.19-3.69Z"/>
    <path class="cls-1" d="M5199.43,563.03h18.96c.07,1.59.2,3.09.2,4.58,0,40.68.31,81.36-.18,122.03-.15,12.33-1.44,24.86-4.04,36.9-5.27,24.37-20.84,39.53-45.18,45.09-21.5,4.91-43.19,4.87-64.69.04-26.5-5.95-40.96-23.51-45.65-49.57-1.54-8.58-2.54-17.37-2.59-26.07-.27-43.08-.14-86.16-.14-129.23,0-1.11.12-2.22.19-3.6h19.3v4.82c0,40.11-.11,80.23.08,120.34.04,9.01.44,18.12,1.89,26.99,3.98,24.34,15.85,35.85,40.64,39.55,14.45,2.16,29.05,2.02,43.43-.85,21.68-4.32,33.27-16.92,35.99-39.18,1.08-8.8,1.66-17.72,1.7-26.59.18-39.97.08-79.94.08-119.91v-5.32Z"/>
    <path class="cls-1" d="M4938.25,508.15v54.66h86.41c-1.49,6.59-2.87,12.73-4.31,19.15h-82.09c0,1.85,0,3.35,0,4.84,0,37.71-.08,75.42.08,113.13.03,7.17.53,14.42,1.69,21.49,3.07,18.75,13.76,29.34,32.68,31.05,14.72,1.33,29.6,1.01,44.41,1.41,1.78.05,3.56,0,5.8,0-1.23,6.61-2.34,12.53-3.42,18.35-.36.23-.59.52-.82.51-18.19-.06-36.45,1.36-54.48-2.26-25.68-5.16-39.76-19.76-43.5-45.76-1.26-8.77-1.82-17.71-1.85-26.57-.16-60.59-.05-121.18-.16-181.78,0-3.64.8-5.25,4.71-5.59,4.74-.4,9.41-1.64,14.87-2.66Z"/>
    <path class="cls-1" d="M4885.02,753.89c-1.37,6.19-2.53,11.8-3.93,17.36-.18.71-1.62,1.58-2.46,1.56-22.99-.53-46.18.55-68.91-2.17-36.41-4.35-57.08-24.72-63.9-61.13-5.34-28.51-5.34-57.44.47-85.9,7.06-34.64,29.24-55.24,64.85-58.7,23.8-2.31,47.92-1.4,71.9-1.91.25,0,.51.21,1.28.54-1.3,5.9-2.62,11.91-4.05,18.41-1.62,0-3.14,0-4.65,0-16.38.06-32.77-.16-49.14.31-7.42.22-14.93,1.25-22.18,2.89-22.14,4.99-34.43,19.58-39.03,41.34-3.6,17.02-3.22,34.27-2.78,51.47.25,9.69.88,19.52,2.78,29,5.55,27.74,22.21,43.29,50.34,45.47,21.07,1.63,42.31,1.05,63.47,1.45,1.79.03,3.59,0,5.94,0Z"/>
    <path class="cls-1" d="M5474.56,773.69h-18.43c-.11-1.56-.31-3.04-.31-4.52-.01-93.6,0-187.2-.08-280.81,0-3.62.84-5.09,4.69-4.82,4.6.32,9.25.08,14.13.08v290.07Z"/>
    <path class="cls-1" d="M4251.89,649.18c-.07-9.97-1.13-20.05-2.92-29.87-6.67-36.73-27.54-61.43-63.94-71.23-34.6-9.32-69.6-9.31-104.22.13-32.78,8.95-53.84,30.44-61.69,63.41-8.36,35.11-8.31,70.65.47,105.72,7.85,31.36,28.02,51.54,59.31,60.17,20.82,5.74,42.07,6.61,63.44,4.39,14.15-1.47,27.76-5.03,40.09-12.48,2.36-1.43,4.63-3.01,8.02-5.23-.55,9.45-.57,17.9-1.61,26.22-2.53,20.24-13.22,32.43-32.25,37.38-3.81.99-7.75,1.85-11.66,1.99-14.25.5-28.51.88-42.76.9-12.36.02-21.47,4.82-28.06,15.55-22.41,36.46-49.51,69.05-82.04,96.98-64.13,55.04-138.24,87.12-222.3,95.78-38.73,3.99-77.3,2.13-115.49-5.64-92.51-18.82-169.13-64.77-229.82-136.74-56.53-67.03-88.24-144.73-96.09-232.1-3.88-43.08-1.36-85.81,8.3-127.96,23.15-101.02,75.64-183.55,159.42-244.64,93.72-68.34,198.7-91.88,312.54-69.43,100.89,19.9,181.73,73.16,243.88,154.88,16.63,21.87,30.51,45.44,42.38,70.21.71,1.47,2.12,3.57,3.34,3.66,5.26.4,10.58.17,15.79.17.11-.86.26-1.17.17-1.39-.64-1.57-1.28-3.13-1.99-4.66-26.9-58.36-64.59-108.6-113.96-149.78-67.64-56.43-145.33-88.92-233.24-96.55-5.89-.51-11.77-1.07-17.66-1.61h-33.06c-6.02.55-12.03,1.15-18.05,1.65-60.54,5.06-117.47,22.26-169.84,52.97-108.76,63.79-176.83,157.89-205.86,280.35-5.71,24.07-8.78,48.58-9.85,73.32-.08,1.79-.48,3.57-.73,5.36v33.06c.26,2.07.67,4.14.76,6.21,1.11,24.6,4.3,48.95,9.86,72.91,24.25,104.49,78.9,189.41,164.96,253.58,56.66,42.25,120.41,67.82,190.47,77.37,35.87,4.89,71.79,4.84,107.72.25,41.31-5.28,80.93-16.5,118.78-33.84,67.73-31.03,123.21-77.03,166.9-137.28,1.89-2.61,3.84-3.52,6.99-3.5,17.52.15,35.03.03,52.55.08,17.84.06,35.56-.94,52.95-5.33,29.48-7.44,51.58-23.57,62.41-52.97,5.38-14.61,7.58-29.82,7.64-45.29.16-42.38.26-84.76-.04-127.14ZM4188.88,697.89c-2.26,18.79-12.85,29.92-31.3,33.6-16.23,3.24-32.55,3.18-48.82.03-16.48-3.18-26.84-13.08-29.92-29.47-4.79-25.48-4.79-51.22-.39-76.7,3.44-19.95,14.31-29.23,34.51-32.27,13.65-2.05,27.29-2,40.93.09,21.12,3.23,32.25,15.21,34.99,38.37,1.17,9.94,1.51,19.98,2.33,31.34-.68,10.81-.89,22.98-2.34,35Z"/>
    <path class="cls-1" d="M3796.65,645.12c-.48-10.78-2.1-21.68-4.62-32.18-8.01-33.37-27.85-56.28-61.49-65.69-26.16-7.32-52.66-7.66-79.19-1.74-11.93,2.66-23,7.43-33.78,15.32v-115.76c-21,3.38-41.64,6.7-62.4,10.04v4.04c0,73.45-.2,146.89.19,220.34.07,13.89,1.42,27.98,4.05,41.62,7.25,37.49,29.45,61.92,66.89,71.01,33.05,8.02,66.41,7.69,99.45-.17,37.42-8.91,59.66-32.88,67.5-70.45,5.27-25.28,4.52-50.86,3.39-76.37ZM3732.92,707.32c-3.83,24.59-16.43,36.75-41.42,39.44-11.26,1.21-22.91,1.05-34.15-.36-21.49-2.68-33.68-15.07-37.94-36.82-1.16-5.93-2.17-12.02-2.16-18.03.02-19.31-.9-38.78,1.21-57.9,2.92-26.46,14.27-36.87,40.55-40.87,12.76-1.94,25.64-1.83,38.36.64,20.3,3.95,32.06,16.29,35.43,38.42,1.92,12.64,2.27,25.53,3.32,38.29-1.02,12.5-1.29,24.97-3.19,37.18Z"/>
    <path class="cls-1" d="M4510.16,618c-6.46-27.7-22.29-46.9-50.45-54.2-22.81-5.92-45.86-5.96-68.69-.04-23.33,6.05-39.45,20.47-47.96,43.19-4.8,12.83-7.28,26.16-7.34,39.75-.25,62.41-.21,124.82-.25,187.24,0,1.06.26,2.12.39,3.12h18.39v-92.32c1.42,1.33,1.95,1.75,2.38,2.25,7.86,9.27,17.73,15.7,29.02,19.88,23.62,8.77,47.79,9.1,72.08,3.52,25.55-5.86,42.11-21.69,50.11-46.63,4.04-12.61,5.78-25.59,6.06-38.75.48-22.43,1.42-44.91-3.74-67.03ZM4491.52,708.85c-4.87,28.19-21.77,42.81-50.46,45.46-12.01,1.11-24,1.22-35.85-1.13-28.75-5.7-45.61-22.56-48.89-51.84-2.78-24.81-3.08-49.93,1.39-74.69,5.13-28.43,22.52-44.47,51.48-46.91,12.26-1.03,24.91-.98,37.06.8,25.86,3.8,40.64,18.32,45.16,44.06,2.45,13.96,2.78,28.28,4.05,42.25-1.27,14.26-1.58,28.31-3.95,41.99Z"/>
    <path class="cls-1" d="M4707.43,634.92c-.04-5.91-.66-11.86-1.57-17.7-3.41-21.79-14.16-38.34-35.38-46.33-8.1-3.05-16.81-5.74-25.35-6.15-25.64-1.23-51.35-1.26-77.03-1.74-.25,0-.5.21-1,.44-1.31,5.86-2.66,11.88-4.14,18.52h4.99c16.38,0,32.78-.35,49.15.12,11.67.33,23.46.9,34.94,2.89,17.91,3.1,30.97,13.11,34.09,31.81,2.21,13.23,2.12,26.84,3.04,39.99-8.63-4.4-15.87-9.4-23.88-11.94-25.7-8.15-51.98-9.05-78.09-2.13-22.11,5.86-36.46,20.26-40.43,43.07-1.87,10.72-2.17,21.92-1.64,32.82,1.3,26.79,16.54,45.47,42.7,51.66,25.2,5.97,50.8,5.72,75.95-.36,20.44-4.94,35.14-17.22,40.74-38.25,1.76-6.62,2.78-13.62,2.87-20.46.33-25.42.22-50.85.05-76.27ZM4688.27,715.52c-.38,21.07-10.23,33.12-31.01,37.05-8.69,1.64-17.61,2.11-28.8,3.38-9.96-1.17-22.33-1.56-34.19-4.24-19.81-4.47-29.34-16.54-30.48-36.83-.42-7.42-.21-15.02.92-22.35,3.02-19.42,14.27-30.61,34.18-33.92,19.54-3.25,39.1-2.74,58.32,2.41,19.82,5.31,30.55,19.2,31.03,39.69.12,4.94.11,9.88.02,14.82Z"/>
    <path class="cls-1" d="M5415.49,637.5c-.07-7.45-.62-14.98-1.88-22.32-3.63-21.18-14.88-36.8-35.4-44.39-8.13-3-16.83-5.64-25.38-6.06-25.08-1.25-50.23-1.33-75.35-1.72-1.06-.02-2.81,1.32-3.09,2.34-1.42,5.28-2.47,10.65-3.78,16.61h4.89c16.39,0,32.78-.34,49.16.12,11.68.33,23.46.91,34.95,2.84,17.28,2.89,29.94,12.14,34.48,30.08,3.5,13.85,2.45,27.98,2.57,43.36-8.26-7.74-17.01-12.29-26.65-14.83-23.44-6.17-47.15-7.2-70.86-1.85-23.59,5.33-39.47,19.36-44.17,43.58-1.99,10.28-2.36,21.08-1.94,31.58,1.14,28.64,17.12,48.21,44.84,54.04,24.27,5.11,48.91,4.95,73.12-.77,19.39-4.58,34.36-15.5,40.61-35.2,2.56-8.06,3.62-16.87,3.8-25.36.49-24,.31-48.03.08-72.04ZM5395.65,722.97c-2.41,16.74-12.46,26.31-30.82,29.57-9.96,1.77-20.15,2.23-32.37,3.5-9.65-1.41-21.38-2.27-32.67-4.98-15.26-3.66-24.52-13.91-26.98-29.67-1.83-11.68-1.74-23.41,1.34-34.87,4.49-16.68,16.51-25.16,32.77-27.88,19.69-3.3,39.4-2.79,58.77,2.42,18.99,5.11,29.33,17.74,30.49,37.41.48,8.14.64,16.46-.52,24.49Z"/>
  </g>
  <rect class="cls-1" x="3054.89" y="197.41" width="12.71" height="860.47"/>
  <g>
    <path class="cls-1" d="M1029.76,557.27c-208.08-268.5-545.41-268.5-753.49,0l-39.85,51.44,39.85,51.44c208.08,268.5,545.41,268.5,753.49,0l39.85-51.44-39.85-51.44ZM809.87,604.37c1.45,41.3-13.26,80.71-41.37,110.92-28.18,30.28-66.44,47.74-107.73,49.19-1.88,0-3.77.07-5.65.07-39.2,0-76.58-14.71-105.27-41.51-22.97-21.37-38.69-48.69-45.5-79.19-.8-3.69,1.52-7.39,5.22-8.19,1.81-.43,3.62-.07,5.14.87,1.52.94,2.61,2.54,3.04,4.27,6.23,27.75,20.58,52.67,41.44,72.16,27.53,25.65,63.47,39.05,101.14,37.75,37.67-1.3,72.52-17.24,98.17-44.85,25.65-27.53,39.05-63.47,37.75-101.14-1.38-37.67-17.24-72.52-44.85-98.17-27.6-25.65-63.32-39.05-101.14-37.75-37.6,1.3-72.52,17.24-98.17,44.85-6.23,6.67-11.81,13.98-16.59,21.66-2.03,3.19-6.3,4.2-9.49,2.17-1.52-.94-2.61-2.46-3.04-4.27-.43-1.81-.07-3.62.87-5.22,5.22-8.4,11.37-16.45,18.19-23.76,28.18-30.21,66.44-47.74,107.73-49.19,41.44-1.45,80.71,13.26,110.92,41.37,30.21,28.11,47.74,66.44,49.19,107.73v.22ZM691.99,596.32c8.4,0,15.65-4.64,19.42-11.52,3.55,7.61,5.51,16.16,5.51,25.07,0,33.04-26.81,59.84-59.84,59.84s-59.84-26.81-59.84-59.84,26.81-59.84,59.84-59.84c8.55,0,16.59,1.81,23.98,5-6.67,3.84-11.16,10.94-11.16,19.2,0,12.17,9.93,22.1,22.1,22.1ZM697.5,558.36c1.3.29,2.46.65,3.41,1.09l.58,5.94c-1.01-.43-2.17-.87-3.48-1.16s-2.61-.43-3.98-.43c-.94,0-1.67,0-2.17.22-.51.14-.87.29-1.09.51s-.29.51-.29.87h0c0,.43.14.72.36,1.01.22.29.65.58,1.3.87.65.29,1.52.58,2.68,1.01,1.67.51,3.12,1.09,4.2,1.67,1.16.58,2.03,1.3,2.61,2.25s.87,2.17.87,3.69v.29c0,2.54-.8,4.49-2.46,5.8-1.01.8-2.61,1.3-4.35,1.59v3.69h-5.72v-3.48h-.8c-1.01-.14-1.96-.36-2.75-.58-.87-.22-1.59-.43-2.25-.72l-.58-6.38c1.01.43,2.25.87,3.69,1.23,1.38.36,2.9.58,4.42.58,1.38,0,2.32-.14,2.9-.43s.8-.72.8-1.38h0c0-.51-.14-.87-.36-1.16-.29-.29-.72-.51-1.3-.8s-1.45-.58-2.54-.87c-1.67-.51-3.12-1.16-4.27-1.74-1.16-.65-2.03-1.45-2.61-2.39s-.87-2.17-.87-3.69v-.29c0-2.32.8-4.06,2.39-5.29,1.09-.8,2.54-1.23,4.2-1.52v-3.55h5.72v3.55c.51,0,1.23,0,1.67.14l.07-.14ZM671.56,514.96c-25.58-3.04-50.5,4.06-70.57,19.92-20.07,15.87-32.82,38.62-35.86,64.05-2.97,25.36,4.06,50.43,19.92,70.57,15.87,20.14,38.62,32.89,63.97,35.86,19.63,2.32,39.2-1.38,56.58-10.72,16.95-9.13,30.65-22.97,39.56-39.92,1.74-3.33,5.87-4.64,9.27-2.9,1.67.87,2.83,2.32,3.41,4.06.58,1.74.36,3.62-.51,5.22-10.22,19.42-25.86,35.21-45.21,45.64-15.87,8.55-33.76,13.04-51.66,13.04-4.35,0-8.77-.29-13.04-.8-29.05-3.41-54.99-17.97-73.1-41.01-18.11-22.97-26.23-51.66-22.82-80.64,3.48-29.05,17.97-55.06,40.93-73.18,22.97-18.11,51.66-26.23,80.71-22.75,40.86,4.85,75.2,31.73,89.69,70.28.65,1.74.58,3.55-.14,5.22-.72,1.67-2.1,2.97-3.84,3.62-3.55,1.38-7.53-.43-8.84-3.98-12.68-33.69-42.75-57.24-78.46-61.44v-.14ZM811.9,764.77c-41.37,41.37-96.36,64.12-154.83,64.12s-113.46-22.75-154.83-64.12c-41.37-41.37-64.12-96.36-64.12-154.83s22.75-113.46,64.12-154.83c41.37-41.37,96.36-64.12,154.83-64.12,8.33,0,16.74.43,24.92,1.38,1.81.22,3.48,1.09,4.56,2.54,1.16,1.45,1.67,3.26,1.45,5.07-.22,1.81-1.09,3.41-2.54,4.56-1.45,1.16-3.26,1.74-5.07,1.45-7.75-.87-15.58-1.3-23.4-1.3-54.85,0-106.36,21.37-145.12,60.13-38.76,38.76-60.13,90.35-60.13,145.12s21.37,106.36,60.13,145.12c38.76,38.76,90.35,60.13,145.12,60.13s106.36-21.37,145.12-60.13c38.76-38.76,60.13-90.27,60.13-145.12,0-44.63-14.06-87.01-40.64-122.66-1.09-1.45-1.59-3.33-1.3-5.14.29-1.81,1.23-3.41,2.68-4.49,1.45-1.09,3.26-1.52,5.07-1.3,1.81.29,3.41,1.23,4.49,2.68,28.4,38.04,43.4,83.32,43.4,130.85,0,58.47-22.75,113.46-64.12,154.83l.07.07Z"/>
    <g>
      <path class="cls-1" d="M1548.94,669.28l-44.92-75.78h-.29l-31.44-53.32-58.61-98.75-134.32,227.78h-77.96l169.1-281.47c7.9-13.19,22.17-21.23,37.53-21.23h41.3l181.85,302.77h-82.38.14Z"/>
      <path class="cls-1" d="M1913.07,348.98h66.94v178.88c0,99.18-49.77,145.84-175.77,145.84s-175.77-46.73-175.77-145.84v-178.88h70.93v178.88c0,56.87,24.71,78.46,107.01,78.46s106.57-21.59,106.57-78.46v-178.88h.07Z"/>
      <path class="cls-1" d="M2004.72,348.98h83.68l133.89,228.73,133.38-228.73h78.83l-181.85,302.77h-66.07l-181.85-302.77Z"/>
      <path class="cls-1" d="M2525.57,582.92v-66.58h166.56c33.47,0,53.25-19.85,53.25-49.34s-19.85-49.34-53.25-49.34h-159.39v251.62h-68.25v-320.3h227.71c75.71,0,120.2,44.92,120.2,115.92s-44.48,118.09-120.2,118.09h-166.56l-.07-.07Z"/>
    </g>
    <path class="cls-1" d="M1192.77,819.76h789.71v27.97h-761.75c-15.43,0-27.97-12.53-27.97-27.97Z"/>
    <g>
      <path class="cls-1" d="M2102.26,886.22c-11.75,0-20.59-3.42-26.5-10.26-5.91-6.84-8.87-16.44-8.87-28.79v-30.57c0-12.42,2.92-22.02,8.76-28.79,5.84-6.77,14.49-10.15,25.94-10.15,7.88,0,14.73,1.12,20.53,3.35s10.9,4.84,15.29,7.81l-1.78-20.53c-2.6-1.71-5.73-3.35-9.37-4.91-3.65-1.56-7.77-2.83-12.38-3.79-4.61-.97-9.71-1.45-15.29-1.45-18.22,0-31.85,5.04-40.89,15.12-9.04,10.08-13.56,24.42-13.56,43.01v31.69c0,18.67,4.52,33.06,13.56,43.18,9.04,10.12,22.67,15.17,40.89,15.17,5.73,0,10.99-.5,15.79-1.51,4.8-1,9.07-2.31,12.83-3.91,3.76-1.6,6.93-3.25,9.54-4.97l1.79-21.09c-4.46,3.2-9.69,5.9-15.68,8.09-5.99,2.19-12.85,3.29-20.59,3.29Z"/>
      <path class="cls-1" d="M2198.41,760.92l-43.74,142.59h22.65l11.56-39.83h53.75l11.56,39.83h22.65l-43.74-142.59h-34.7ZM2194.26,845.16l20.11-69.29h2.79l20.11,69.29h-43Z"/>
      <path class="cls-1" d="M2356.62,760.92h-54.78v142.59h22.09v-45.75h32.58c16.36,0,28.34-3.79,35.93-11.38,7.59-7.59,11.38-18.15,11.38-31.69v-10.82c0-13.54-3.78-24.08-11.32-31.63-7.55-7.55-19.51-11.32-35.87-11.32ZM2381.5,814.14c0,7.88-2.03,14.04-6.08,18.47-4.05,4.43-10.54,6.64-19.47,6.64h-32.13v-59.91h32.36c8.85,0,15.29,2.16,19.3,6.47,4.02,4.31,6.03,10.53,6.03,18.63v9.71Z"/>
      <rect class="cls-1" x="2432.93" y="760.92" width="22.43" height="142.59"/>
      <polygon class="cls-1" points="2581.83 779.67 2581.83 760.92 2475.61 760.92 2475.61 779.67 2517.56 779.67 2517.56 903.51 2539.99 903.51 2539.99 779.67 2581.83 779.67"/>
      <path class="cls-1" d="M2622.1,760.92l-43.74,142.59h22.65l11.56-39.83h53.75l11.56,39.83h22.65l-43.74-142.59h-34.7ZM2617.95,845.16l20.11-69.29h2.79l20.11,69.29h-43Z"/>
      <polygon class="cls-1" points="2747.96 884.55 2747.96 760.92 2725.53 760.92 2725.53 903.51 2737.8 903.51 2747.96 903.51 2812.56 903.51 2812.56 884.55 2747.96 884.55"/>
    </g>
  </g>
</svg>